0
SECTION
2
HEADER
9
$EXTMIN
10
 509383.625000
20
5459162.125000
9
$EXTMAX
10
 510118.375000
20
5460166.625000
0
ENDSEC
0
SECTION
2
TABLES
0
TABLE
2
LTYPE
70
4
0
LTYPE
2
CONTINUOUS
70
64
3
Solid line
72
65
73
0
40
0.0
0
LTYPE
2
DASHED
70
64
3
Dashed line
72
65
73
2
40
0.8
49
0.5
49
-0.3
0
LTYPE
2
DOT
70
64
3
Dotted line
72
65
73
2
40
0.2
49
0.1
49
-0.1
0
LTYPE
2
DASHDOT
70
64
3
Dotted line
72
65
73
4
40
1
49
0.5
49
-0.2
49
0.1
49
-0.2
0
LTYPE
2
SMALLDOT
70
64
3
Small dotted
72
65
73
2
40
0.1
49
0
49
-0.1
0
LTYPE
2
CENTER
70
64
3
Centerline
72
65
73
4
40
1.1
49
0.8
49
-0.1
49
0.1
49
-0.1
0
ENDTAB
0
TABLE
2
STYLE
70
2
0
STYLE
2
STANDARD
70
64
40
0
41
1
50
0
71
0
3
TXT
42
1
4

0
STYLE
2
ROMAN
70
64
40
0
41
1
50
0
71
0
3
ROMANS.SHX
42
1
4

0
STYLE
2
TECHNIC
70
64
40
0
41
1
50
0
71
0
3
te______.pfb
42
1
4

0
STYLE
2
BLUEPRINT
70
64
40
0
41
1
50
0
71
0
3
cibt____.pfb
42
1
4

0
ENDTAB
0
TABLE
2
LAYER
70
1
0
LAYER
2
Soundings
70
0
62
1
6
CONTINUOUS
0
ENDTAB
0
TABLE
2
VIEW
70
0
0
ENDTAB
0
ENDSEC
0
SECTION
2
ENTITIES
0
TEXT
8
Soundings
10
509608.625000
20
5460066.625000
30
10.350019
40
0.100000
1
10.35
50
0.000000
0
POLYLINE
8
Soundings
40
10.000000
41
10.000000
70
0
66
1
0
VERTEX
8
Soundings
10
509608.575000
20
5460066.575000
30
10.350019
40
0.000000
41
0.000000
0
VERTEX
8
Soundings
10
509608.625000
20
5460066.625000
30
10.350019
40
0.000000
41
0.000000
0
VERTEX
8
Soundings
10
509608.675000
20
5460066.575000
30
10.350019
40
0.000000
41
0.000000
0
SEQEND
0
TEXT
8
Soundings
10
509583.625000
20
5460041.625000
30
12.200019
40
0.100000
1
12.20
50
0.000000
0
POLYLINE
8
Soundings
40
10.000000
41
10.000000
70
0
66
1
0
VERTEX
8
Soundings
10
509583.575000
20
5460041.575000
30
12.200019
40
0.000000
41
0.000000
0
VERTEX
8
Soundings
10
509583.625000
20
5460041.625000
30
12.200019
40
0.000000
41
0.000000
0
VERTEX
8
Soundings
10
509583.675000
20
5460041.575000
30
12.200019
40
0.000000
41
0.000000
0
SEQEND
0
TEXT
8
Soundings
10
509608.625000
20
5460041.625000
30
12.000019
40
0.100000
1
12.00
50
0.000000
0
POLYLINE
8
Soundings
40
10.000000
41
10.000000
70
0
66
1
0
VERTEX
8
Soundings
10
509608.575000
20
5460041.575000
30
12.000019
40
0.000000
41
0.000000
0
VERTEX
8
Soundings
10
509608.625000
20
5460041.625000
30
12.000019
40
0.000000
41
0.000000
0
VERTEX
8
Soundings
10
509608.675000
20
5460041.575000
30
12.000019
40
0.000000
41
0.000000
0
SEQEND
0
TEXT
8
Soundings
10
509633.625000
20
5460041.625000
30
10.250019
40
0.100000
1
10.25
50
0.000000
0
POLYLINE
8
Soundings
40
10.000000
41
10.000000
70
0
66
1
0
VERTEX
8
Soundings
10
509633.575000
20
5460041.575000
30
10.250019
40
0.000000
41
0.000000
0
VERTEX
8
Soundings
10
509633.625000
20
5460041.625000
30
10.250019
40
0.000000
41
0.000000
0
VERTEX
8
Soundings
10
509633.675000
20
5460041.575000
30
10.250019
40
0.000000
41
0.000000
0
SEQEND
0
TEXT
8
Soundings
10
509658.625000
20
5460041.625000
30
9.950019
40
0.100000
1
9.95
50
0.000000
0
POLYLINE
8
Soundings
40
10.000000
41
10.000000
70
0
66
1
0
VERTEX
8
Soundings
10
509658.575000
20
5460041.575000
30
9.950019
40
0.000000
41
0.000000
0
VERTEX
8
Soundings
10
509658.625000
20
5460041.625000
30
9.950019
40
0.000000
41
0.000000
0
VERTEX
8
Soundings
10
509658.675000
20
5460041.575000
30
9.950019
40
0.000000
41
0.000000
0
SEQEND
0
TEXT
8
Soundings
10
509583.625000
20
5460016.625000
30
12.500019
40
0.100000
1
12.50
50
0.000000
0
POLYLINE
8
Soundings
40
10.000000
41
10.000000
70
0
66
1
0
VERTEX
8
Soundings
10
509583.575000
20
5460016.575000
30
12.500019
40
0.000000
41
0.000000
0
VERTEX
8
Soundings
10
509583.625000
20
5460016.625000
30
12.500019
40
0.000000
41
0.000000
0
VERTEX
8
Soundings
10
509583.675000
20
5460016.575000
30
12.500019
40
0.000000
41
0.000000
0
SEQEND
0
TEXT
8
Soundings
10
509608.625000
20
5460016.625000
30
12.450019
40
0.100000
1
12.45
50
0.000000
0
POLYLINE
8
Soundings
40
10.000000
41
10.000000
70
0
66
1
0
VERTEX
8
Soundings
10
509608.575000
20
5460016.575000
30
12.450019
40
0.000000
41
0.000000
0
VERTEX
8
Soundings
10
509608.625000
20
5460016.625000
30
12.450019
40
0.000000
41
0.000000
0
VERTEX
8
Soundings
10
509608.675000
20
5460016.575000
30
12.450019
40
0.000000
41
0.000000
0
SEQEND
0
TEXT
8
Soundings
10
509633.625000
20
5460016.625000
30
11.450019
40
0.100000
1
11.45
50
0.000000
0
POLYLINE
8
Soundings
40
10.000000
41
10.000000
70
0
66
1
0
VERTEX
8
Soundings
10
509633.575000
20
5460016.575000
30
11.450019
40
0.000000
41
0.000000
0
VERTEX
8
Soundings
10
509633.625000
20
5460016.625000
30
11.450019
40
0.000000
41
0.000000
0
VERTEX
8
Soundings
10
509633.675000
20
5460016.575000
30
11.450019
40
0.000000
41
0.000000
0
SEQEND
0
TEXT
8
Soundings
10
509658.625000
20
5460016.625000
30
10.150020
40
0.100000
1
10.15
50
0.000000
0
POLYLINE
8
Soundings
40
10.000000
41
10.000000
70
0
66
1
0
VERTEX
8
Soundings
10
509658.575000
20
5460016.575000
30
10.150020
40
0.000000
41
0.000000
0
VERTEX
8
Soundings
10
509658.625000
20
5460016.625000
30
10.150020
40
0.000000
41
0.000000
0
VERTEX
8
Soundings
10
509658.675000
20
5460016.575000
30
10.150020
40
0.000000
41
0.000000
0
SEQEND
0
TEXT
8
Soundings
10
509683.625000
20
5460016.625000
30
13.300019
40
0.100000
1
13.30
50
0.000000
0
POLYLINE
8
Soundings
40
10.000000
41
10.000000
70
0
66
1
0
VERTEX
8
Soundings
10
509683.575000
20
5460016.575000
30
13.300019
40
0.000000
41
0.000000
0
VERTEX
8
Soundings
10
509683.625000
20
5460016.625000
30
13.300019
40
0.000000
41
0.000000
0
VERTEX
8
Soundings
10
509683.675000
20
5460016.575000
30
13.300019
40
0.000000
41
0.000000
0
SEQEND
0
TEXT
8
Soundings
10
509708.625000
20
5460016.625000
30
13.700019
40
0.100000
1
13.70
50
0.000000
0
POLYLINE
8
Soundings
40
10.000000
41
10.000000
70
0
66
1
0
VERTEX
8
Soundings
10
509708.575000
20
5460016.575000
30
13.700019
40
0.000000
41
0.000000
0
VERTEX
8
Soundings
10
509708.625000
20
5460016.625000
30
13.700019
40
0.000000
41
0.000000
0
VERTEX
8
Soundings
10
509708.675000
20
5460016.575000
30
13.700019
40
0.000000
41
0.000000
0
SEQEND
0
TEXT
8
Soundings
10
509458.625000
20
5459991.625000
30
14.400020
40
0.100000
1
14.40
50
0.000000
0
POLYLINE
8
Soundings
40
10.000000
41
10.000000
70
0
66
1
0
VERTEX
8
Soundings
10
509458.575000
20
5459991.575000
30
14.400020
40
0.000000
41
0.000000
0
VERTEX
8
Soundings
10
509458.625000
20
5459991.625000
30
14.400020
40
0.000000
41
0.000000
0
VERTEX
8
Soundings
10
509458.675000
20
5459991.575000
30
14.400020
40
0.000000
41
0.000000
0
SEQEND
0
TEXT
8
Soundings
10
509483.625000
20
5459991.625000
30
14.100019
40
0.100000
1
14.10
50
0.000000
0
POLYLINE
8
Soundings
40
10.000000
41
10.000000
70
0
66
1
0
VERTEX
8
Soundings
10
509483.575000
20
5459991.575000
30
14.100019
40
0.000000
41
0.000000
0
VERTEX
8
Soundings
10
509483.625000
20
5459991.625000
30
14.100019
40
0.000000
41
0.000000
0
VERTEX
8
Soundings
10
509483.675000
20
5459991.575000
30
14.100019
40
0.000000
41
0.000000
0
SEQEND
0
TEXT
8
Soundings
10
509558.625000
20
5459991.625000
30
12.650020
40
0.100000
1
12.65
50
0.000000
0
POLYLINE
8
Soundings
40
10.000000
41
10.000000
70
0
66
1
0
VERTEX
8
Soundings
10
509558.575000
20
5459991.575000
30
12.650020
40
0.000000
41
0.000000
0
VERTEX
8
Soundings
10
509558.625000
20
5459991.625000
30
12.650020
40
0.000000
41
0.000000
0
VERTEX
8
Soundings
10
509558.675000
20
5459991.575000
30
12.650020
40
0.000000
41
0.000000
0
SEQEND
0
TEXT
8
Soundings
10
509583.625000
20
5459991.625000
30
14.900020
40
0.100000
1
14.90
50
0.000000
0
POLYLINE
8
Soundings
40
10.000000
41
10.000000
70
0
66
1
0
VERTEX
8
Soundings
10
509583.575000
20
5459991.575000
30
14.900020
40
0.000000
41
0.000000
0
VERTEX
8
Soundings
10
509583.625000
20
5459991.625000
30
14.900020
40
0.000000
41
0.000000
0
VERTEX
8
Soundings
10
509583.675000
20
5459991.575000
30
14.900020
40
0.000000
41
0.000000
0
SEQEND
0
TEXT
8
Soundings
10
509633.625000
20
5459991.625000
30
15.100019
40
0.100000
1
15.10
50
0.000000
0
POLYLINE
8
Soundings
40
10.000000
41
10.000000
70
0
66
1
0
VERTEX
8
Soundings
10
509633.575000
20
5459991.575000
30
15.100019
40
0.000000
41
0.000000
0
VERTEX
8
Soundings
10
509633.625000
20
5459991.625000
30
15.100019
40
0.000000
41
0.000000
0
VERTEX
8
Soundings
10
509633.675000
20
5459991.575000
30
15.100019
40
0.000000
41
0.000000
0
SEQEND
0
TEXT
8
Soundings
10
509658.625000
20
5459991.625000
30
14.700019
40
0.100000
1
14.70
50
0.000000
0
POLYLINE
8
Soundings
40
10.000000
41
10.000000
70
0
66
1
0
VERTEX
8
Soundings
10
509658.575000
20
5459991.575000
30
14.700019
40
0.000000
41
0.000000
0
VERTEX
8
Soundings
10
509658.625000
20
5459991.625000
30
14.700019
40
0.000000
41
0.000000
0
VERTEX
8
Soundings
10
509658.675000
20
5459991.575000
30
14.700019
40
0.000000
41
0.000000
0
SEQEND
0
TEXT
8
Soundings
10
509683.625000
20
5459991.625000
30
14.600019
40
0.100000
1
14.60
50
0.000000
0
POLYLINE
8
Soundings
40
10.000000
41
10.000000
70
0
66
1
0
VERTEX
8
Soundings
10
509683.575000
20
5459991.575000
30
14.600019
40
0.000000
41
0.000000
0
VERTEX
8
Soundings
10
509683.625000
20
5459991.625000
30
14.600019
40
0.000000
41
0.000000
0
VERTEX
8
Soundings
10
509683.675000
20
5459991.575000
30
14.600019
40
0.000000
41
0.000000
0
SEQEND
0
TEXT
8
Soundings
10
509708.625000
20
5459991.625000
30
14.550019
40
0.100000
1
14.55
50
0.000000
0
POLYLINE
8
Soundings
40
10.000000
41
10.000000
70
0
66
1
0
VERTEX
8
Soundings
10
509708.575000
20
5459991.575000
30
14.550019
40
0.000000
41
0.000000
0
VERTEX
8
Soundings
10
509708.625000
20
5459991.625000
30
14.550019
40
0.000000
41
0.000000
0
VERTEX
8
Soundings
10
509708.675000
20
5459991.575000
30
14.550019
40
0.000000
41
0.000000
0
SEQEND
0
TEXT
8
Soundings
10
509733.625000
20
5459991.625000
30
14.450019
40
0.100000
1
14.45
50
0.000000
0
POLYLINE
8
Soundings
40
10.000000
41
10.000000
70
0
66
1
0
VERTEX
8
Soundings
10
509733.575000
20
5459991.575000
30
14.450019
40
0.000000
41
0.000000
0
VERTEX
8
Soundings
10
509733.625000
20
5459991.625000
30
14.450019
40
0.000000
41
0.000000
0
VERTEX
8
Soundings
10
509733.675000
20
5459991.575000
30
14.450019
40
0.000000
41
0.000000
0
SEQEND
0
TEXT
8
Soundings
10
509458.625000
20
5459966.625000
30
14.650020
40
0.100000
1
14.65
50
0.000000
0
POLYLINE
8
Soundings
40
10.000000
41
10.000000
70
0
66
1
0
VERTEX
8
Soundings
10
509458.575000
20
5459966.575000
30
14.650020
40
0.000000
41
0.000000
0
VERTEX
8
Soundings
10
509458.625000
20
5459966.625000
30
14.650020
40
0.000000
41
0.000000
0
VERTEX
8
Soundings
10
509458.675000
20
5459966.575000
30
14.650020
40
0.000000
41
0.000000
0
SEQEND
0
TEXT
8
Soundings
10
509483.625000
20
5459966.625000
30
14.350019
40
0.100000
1
14.35
50
0.000000
0
POLYLINE
8
Soundings
40
10.000000
41
10.000000
70
0
66
1
0
VERTEX
8
Soundings
10
509483.575000
20
5459966.575000
30
14.350019
40
0.000000
41
0.000000
0
VERTEX
8
Soundings
10
509483.625000
20
5459966.625000
30
14.350019
40
0.000000
41
0.000000
0
VERTEX
8
Soundings
10
509483.675000
20
5459966.575000
30
14.350019
40
0.000000
41
0.000000
0
SEQEND
0
TEXT
8
Soundings
10
509508.625000
20
5459966.625000
30
14.200019
40
0.100000
1
14.20
50
0.000000
0
POLYLINE
8
Soundings
40
10.000000
41
10.000000
70
0
66
1
0
VERTEX
8
Soundings
10
509508.575000
20
5459966.575000
30
14.200019
40
0.000000
41
0.000000
0
VERTEX
8
Soundings
10
509508.625000
20
5459966.625000
30
14.200019
40
0.000000
41
0.000000
0
VERTEX
8
Soundings
10
509508.675000
20
5459966.575000
30
14.200019
40
0.000000
41
0.000000
0
SEQEND
0
TEXT
8
Soundings
10
509533.625000
20
5459966.625000
30
15.500019
40
0.100000
1
15.50
50
0.000000
0
POLYLINE
8
Soundings
40
10.000000
41
10.000000
70
0
66
1
0
VERTEX
8
Soundings
10
509533.575000
20
5459966.575000
30
15.500019
40
0.000000
41
0.000000
0
VERTEX
8
Soundings
10
509533.625000
20
5459966.625000
30
15.500019
40
0.000000
41
0.000000
0
VERTEX
8
Soundings
10
509533.675000
20
5459966.575000
30
15.500019
40
0.000000
41
0.000000
0
SEQEND
0
TEXT
8
Soundings
10
509558.625000
20
5459966.625000
30
14.750019
40
0.100000
1
14.75
50
0.000000
0
POLYLINE
8
Soundings
40
10.000000
41
10.000000
70
0
66
1
0
VERTEX
8
Soundings
10
509558.575000
20
5459966.575000
30
14.750019
40
0.000000
41
0.000000
0
VERTEX
8
Soundings
10
509558.625000
20
5459966.625000
30
14.750019
40
0.000000
41
0.000000
0
VERTEX
8
Soundings
10
509558.675000
20
5459966.575000
30
14.750019
40
0.000000
41
0.000000
0
SEQEND
0
TEXT
8
Soundings
10
509583.625000
20
5459966.625000
30
15.250019
40
0.100000
1
15.25
50
0.000000
0
POLYLINE
8
Soundings
40
10.000000
41
10.000000
70
0
66
1
0
VERTEX
8
Soundings
10
509583.575000
20
5459966.575000
30
15.250019
40
0.000000
41
0.000000
0
VERTEX
8
Soundings
10
509583.625000
20
5459966.625000
30
15.250019
40
0.000000
41
0.000000
0
VERTEX
8
Soundings
10
509583.675000
20
5459966.575000
30
15.250019
40
0.000000
41
0.000000
0
SEQEND
0
TEXT
8
Soundings
10
509608.625000
20
5459966.625000
30
14.850019
40
0.100000
1
14.85
50
0.000000
0
POLYLINE
8
Soundings
40
10.000000
41
10.000000
70
0
66
1
0
VERTEX
8
Soundings
10
509608.575000
20
5459966.575000
30
14.850019
40
0.000000
41
0.000000
0
VERTEX
8
Soundings
10
509608.625000
20
5459966.625000
30
14.850019
40
0.000000
41
0.000000
0
VERTEX
8
Soundings
10
509608.675000
20
5459966.575000
30
14.850019
40
0.000000
41
0.000000
0
SEQEND
0
TEXT
8
Soundings
10
509633.625000
20
5459966.625000
30
15.150020
40
0.100000
1
15.15
50
0.000000
0
POLYLINE
8
Soundings
40
10.000000
41
10.000000
70
0
66
1
0
VERTEX
8
Soundings
10
509633.575000
20
5459966.575000
30
15.150020
40
0.000000
41
0.000000
0
VERTEX
8
Soundings
10
509633.625000
20
5459966.625000
30
15.150020
40
0.000000
41
0.000000
0
VERTEX
8
Soundings
10
509633.675000
20
5459966.575000
30
15.150020
40
0.000000
41
0.000000
0
SEQEND
0
TEXT
8
Soundings
10
509658.625000
20
5459966.625000
30
14.850019
40
0.100000
1
14.85
50
0.000000
0
POLYLINE
8
Soundings
40
10.000000
41
10.000000
70
0
66
1
0
VERTEX
8
Soundings
10
509658.575000
20
5459966.575000
30
14.850019
40
0.000000
41
0.000000
0
VERTEX
8
Soundings
10
509658.625000
20
5459966.625000
30
14.850019
40
0.000000
41
0.000000
0
VERTEX
8
Soundings
10
509658.675000
20
5459966.575000
30
14.850019
40
0.000000
41
0.000000
0
SEQEND
0
TEXT
8
Soundings
10
509683.625000
20
5459966.625000
30
14.750019
40
0.100000
1
14.75
50
0.000000
0
POLYLINE
8
Soundings
40
10.000000
41
10.000000
70
0
66
1
0
VERTEX
8
Soundings
10
509683.575000
20
5459966.575000
30
14.750019
40
0.000000
41
0.000000
0
VERTEX
8
Soundings
10
509683.625000
20
5459966.625000
30
14.750019
40
0.000000
41
0.000000
0
VERTEX
8
Soundings
10
509683.675000
20
5459966.575000
30
14.750019
40
0.000000
41
0.000000
0
SEQEND
0
TEXT
8
Soundings
10
509708.625000
20
5459966.625000
30
14.950019
40
0.100000
1
14.95
50
0.000000
0
POLYLINE
8
Soundings
40
10.000000
41
10.000000
70
0
66
1
0
VERTEX
8
Soundings
10
509708.575000
20
5459966.575000
30
14.950019
40
0.000000
41
0.000000
0
VERTEX
8
Soundings
10
509708.625000
20
5459966.625000
30
14.950019
40
0.000000
41
0.000000
0
VERTEX
8
Soundings
10
509708.675000
20
5459966.575000
30
14.950019
40
0.000000
41
0.000000
0
SEQEND
0
TEXT
8
Soundings
10
509733.625000
20
5459966.625000
30
14.950019
40
0.100000
1
14.95
50
0.000000
0
POLYLINE
8
Soundings
40
10.000000
41
10.000000
70
0
66
1
0
VERTEX
8
Soundings
10
509733.575000
20
5459966.575000
30
14.950019
40
0.000000
41
0.000000
0
VERTEX
8
Soundings
10
509733.625000
20
5459966.625000
30
14.950019
40
0.000000
41
0.000000
0
VERTEX
8
Soundings
10
509733.675000
20
5459966.575000
30
14.950019
40
0.000000
41
0.000000
0
SEQEND
0
TEXT
8
Soundings
10
509758.625000
20
5459966.625000
30
14.600019
40
0.100000
1
14.60
50
0.000000
0
POLYLINE
8
Soundings
40
10.000000
41
10.000000
70
0
66
1
0
VERTEX
8
Soundings
10
509758.575000
20
5459966.575000
30
14.600019
40
0.000000
41
0.000000
0
VERTEX
8
Soundings
10
509758.625000
20
5459966.625000
30
14.600019
40
0.000000
41
0.000000
0
VERTEX
8
Soundings
10
509758.675000
20
5459966.575000
30
14.600019
40
0.000000
41
0.000000
0
SEQEND
0
TEXT
8
Soundings
10
509508.625000
20
5459941.625000
30
15.650020
40
0.100000
1
15.65
50
0.000000
0
POLYLINE
8
Soundings
40
10.000000
41
10.000000
70
0
66
1
0
VERTEX
8
Soundings
10
509508.575000
20
5459941.575000
30
15.650020
40
0.000000
41
0.000000
0
VERTEX
8
Soundings
10
509508.625000
20
5459941.625000
30
15.650020
40
0.000000
41
0.000000
0
VERTEX
8
Soundings
10
509508.675000
20
5459941.575000
30
15.650020
40
0.000000
41
0.000000
0
SEQEND
0
TEXT
8
Soundings
10
509533.625000
20
5459941.625000
30
15.350019
40
0.100000
1
15.35
50
0.000000
0
POLYLINE
8
Soundings
40
10.000000
41
10.000000
70
0
66
1
0
VERTEX
8
Soundings
10
509533.575000
20
5459941.575000
30
15.350019
40
0.000000
41
0.000000
0
VERTEX
8
Soundings
10
509533.625000
20
5459941.625000
30
15.350019
40
0.000000
41
0.000000
0
VERTEX
8
Soundings
10
509533.675000
20
5459941.575000
30
15.350019
40
0.000000
41
0.000000
0
SEQEND
0
TEXT
8
Soundings
10
509558.625000
20
5459941.625000
30
15.000019
40
0.100000
1
15.00
50
0.000000
0
POLYLINE
8
Soundings
40
10.000000
41
10.000000
70
0
66
1
0
VERTEX
8
Soundings
10
509558.575000
20
5459941.575000
30
15.000019
40
0.000000
41
0.000000
0
VERTEX
8
Soundings
10
509558.625000
20
5459941.625000
30
15.000019
40
0.000000
41
0.000000
0
VERTEX
8
Soundings
10
509558.675000
20
5459941.575000
30
15.000019
40
0.000000
41
0.000000
0
SEQEND
0
TEXT
8
Soundings
10
509583.625000
20
5459941.625000
30
15.100019
40
0.100000
1
15.10
50
0.000000
0
POLYLINE
8
Soundings
40
10.000000
41
10.000000
70
0
66
1
0
VERTEX
8
Soundings
10
509583.575000
20
5459941.575000
30
15.100019
40
0.000000
41
0.000000
0
VERTEX
8
Soundings
10
509583.625000
20
5459941.625000
30
15.100019
40
0.000000
41
0.000000
0
VERTEX
8
Soundings
10
509583.675000
20
5459941.575000
30
15.100019
40
0.000000
41
0.000000
0
SEQEND
0
TEXT
8
Soundings
10
509608.625000
20
5459941.625000
30
15.400020
40
0.100000
1
15.40
50
0.000000
0
POLYLINE
8
Soundings
40
10.000000
41
10.000000
70
0
66
1
0
VERTEX
8
Soundings
10
509608.575000
20
5459941.575000
30
15.400020
40
0.000000
41
0.000000
0
VERTEX
8
Soundings
10
509608.625000
20
5459941.625000
30
15.400020
40
0.000000
41
0.000000
0
VERTEX
8
Soundings
10
509608.675000
20
5459941.575000
30
15.400020
40
0.000000
41
0.000000
0
SEQEND
0
TEXT
8
Soundings
10
509633.625000
20
5459941.625000
30
15.650020
40
0.100000
1
15.65
50
0.000000
0
POLYLINE
8
Soundings
40
10.000000
41
10.000000
70
0
66
1
0
VERTEX
8
Soundings
10
509633.575000
20
5459941.575000
30
15.650020
40
0.000000
41
0.000000
0
VERTEX
8
Soundings
10
509633.625000
20
5459941.625000
30
15.650020
40
0.000000
41
0.000000
0
VERTEX
8
Soundings
10
509633.675000
20
5459941.575000
30
15.650020
40
0.000000
41
0.000000
0
SEQEND
0
TEXT
8
Soundings
10
509658.625000
20
5459941.625000
30
15.000019
40
0.100000
1
15.00
50
0.000000
0
POLYLINE
8
Soundings
40
10.000000
41
10.000000
70
0
66
1
0
VERTEX
8
Soundings
10
509658.575000
20
5459941.575000
30
15.000019
40
0.000000
41
0.000000
0
VERTEX
8
Soundings
10
509658.625000
20
5459941.625000
30
15.000019
40
0.000000
41
0.000000
0
VERTEX
8
Soundings
10
509658.675000
20
5459941.575000
30
15.000019
40
0.000000
41
0.000000
0
SEQEND
0
TEXT
8
Soundings
10
509683.625000
20
5459941.625000
30
15.050019
40
0.100000
1
15.05
50
0.000000
0
POLYLINE
8
Soundings
40
10.000000
41
10.000000
70
0
66
1
0
VERTEX
8
Soundings
10
509683.575000
20
5459941.575000
30
15.050019
40
0.000000
41
0.000000
0
VERTEX
8
Soundings
10
509683.625000
20
5459941.625000
30
15.050019
40
0.000000
41
0.000000
0
VERTEX
8
Soundings
10
509683.675000
20
5459941.575000
30
15.050019
40
0.000000
41
0.000000
0
SEQEND
0
TEXT
8
Soundings
10
509708.625000
20
5459941.625000
30
15.350019
40
0.100000
1
15.35
50
0.000000
0
POLYLINE
8
Soundings
40
10.000000
41
10.000000
70
0
66
1
0
VERTEX
8
Soundings
10
509708.575000
20
5459941.575000
30
15.350019
40
0.000000
41
0.000000
0
VERTEX
8
Soundings
10
509708.625000
20
5459941.625000
30
15.350019
40
0.000000
41
0.000000
0
VERTEX
8
Soundings
10
509708.675000
20
5459941.575000
30
15.350019
40
0.000000
41
0.000000
0
SEQEND
0
TEXT
8
Soundings
10
509733.625000
20
5459941.625000
30
15.300019
40
0.100000
1
15.30
50
0.000000
0
POLYLINE
8
Soundings
40
10.000000
41
10.000000
70
0
66
1
0
VERTEX
8
Soundings
10
509733.575000
20
5459941.575000
30
15.300019
40
0.000000
41
0.000000
0
VERTEX
8
Soundings
10
509733.625000
20
5459941.625000
30
15.300019
40
0.000000
41
0.000000
0
VERTEX
8
Soundings
10
509733.675000
20
5459941.575000
30
15.300019
40
0.000000
41
0.000000
0
SEQEND
0
TEXT
8
Soundings
10
509758.625000
20
5459941.625000
30
15.450019
40
0.100000
1
15.45
50
0.000000
0
POLYLINE
8
Soundings
40
10.000000
41
10.000000
70
0
66
1
0
VERTEX
8
Soundings
10
509758.575000
20
5459941.575000
30
15.450019
40
0.000000
41
0.000000
0
VERTEX
8
Soundings
10
509758.625000
20
5459941.625000
30
15.450019
40
0.000000
41
0.000000
0
VERTEX
8
Soundings
10
509758.675000
20
5459941.575000
30
15.450019
40
0.000000
41
0.000000
0
SEQEND
0
TEXT
8
Soundings
10
509783.625000
20
5459941.625000
30
15.250019
40
0.100000
1
15.25
50
0.000000
0
POLYLINE
8
Soundings
40
10.000000
41
10.000000
70
0
66
1
0
VERTEX
8
Soundings
10
509783.575000
20
5459941.575000
30
15.250019
40
0.000000
41
0.000000
0
VERTEX
8
Soundings
10
509783.625000
20
5459941.625000
30
15.250019
40
0.000000
41
0.000000
0
VERTEX
8
Soundings
10
509783.675000
20
5459941.575000
30
15.250019
40
0.000000
41
0.000000
0
SEQEND
0
TEXT
8
Soundings
10
509558.625000
20
5459916.625000
30
15.300019
40
0.100000
1
15.30
50
0.000000
0
POLYLINE
8
Soundings
40
10.000000
41
10.000000
70
0
66
1
0
VERTEX
8
Soundings
10
509558.575000
20
5459916.575000
30
15.300019
40
0.000000
41
0.000000
0
VERTEX
8
Soundings
10
509558.625000
20
5459916.625000
30
15.300019
40
0.000000
41
0.000000
0
VERTEX
8
Soundings
10
509558.675000
20
5459916.575000
30
15.300019
40
0.000000
41
0.000000
0
SEQEND
0
TEXT
8
Soundings
10
509583.625000
20
5459916.625000
30
15.500019
40
0.100000
1
15.50
50
0.000000
0
POLYLINE
8
Soundings
40
10.000000
41
10.000000
70
0
66
1
0
VERTEX
8
Soundings
10
509583.575000
20
5459916.575000
30
15.500019
40
0.000000
41
0.000000
0
VERTEX
8
Soundings
10
509583.625000
20
5459916.625000
30
15.500019
40
0.000000
41
0.000000
0
VERTEX
8
Soundings
10
509583.675000
20
5459916.575000
30
15.500019
40
0.000000
41
0.000000
0
SEQEND
0
TEXT
8
Soundings
10
509608.625000
20
5459916.625000
30
15.450019
40
0.100000
1
15.45
50
0.000000
0
POLYLINE
8
Soundings
40
10.000000
41
10.000000
70
0
66
1
0
VERTEX
8
Soundings
10
509608.575000
20
5459916.575000
30
15.450019
40
0.000000
41
0.000000
0
VERTEX
8
Soundings
10
509608.625000
20
5459916.625000
30
15.450019
40
0.000000
41
0.000000
0
VERTEX
8
Soundings
10
509608.675000
20
5459916.575000
30
15.450019
40
0.000000
41
0.000000
0
SEQEND
0
TEXT
8
Soundings
10
509633.625000
20
5459916.625000
30
15.650020
40
0.100000
1
15.65
50
0.000000
0
POLYLINE
8
Soundings
40
10.000000
41
10.000000
70
0
66
1
0
VERTEX
8
Soundings
10
509633.575000
20
5459916.575000
30
15.650020
40
0.000000
41
0.000000
0
VERTEX
8
Soundings
10
509633.625000
20
5459916.625000
30
15.650020
40
0.000000
41
0.000000
0
VERTEX
8
Soundings
10
509633.675000
20
5459916.575000
30
15.650020
40
0.000000
41
0.000000
0
SEQEND
0
TEXT
8
Soundings
10
509658.625000
20
5459916.625000
30
15.350019
40
0.100000
1
15.35
50
0.000000
0
POLYLINE
8
Soundings
40
10.000000
41
10.000000
70
0
66
1
0
VERTEX
8
Soundings
10
509658.575000
20
5459916.575000
30
15.350019
40
0.000000
41
0.000000
0
VERTEX
8
Soundings
10
509658.625000
20
5459916.625000
30
15.350019
40
0.000000
41
0.000000
0
VERTEX
8
Soundings
10
509658.675000
20
5459916.575000
30
15.350019
40
0.000000
41
0.000000
0
SEQEND
0
TEXT
8
Soundings
10
509683.625000
20
5459916.625000
30
15.050019
40
0.100000
1
15.05
50
0.000000
0
POLYLINE
8
Soundings
40
10.000000
41
10.000000
70
0
66
1
0
VERTEX
8
Soundings
10
509683.575000
20
5459916.575000
30
15.050019
40
0.000000
41
0.000000
0
VERTEX
8
Soundings
10
509683.625000
20
5459916.625000
30
15.050019
40
0.000000
41
0.000000
0
VERTEX
8
Soundings
10
509683.675000
20
5459916.575000
30
15.050019
40
0.000000
41
0.000000
0
SEQEND
0
TEXT
8
Soundings
10
509708.625000
20
5459916.625000
30
15.400020
40
0.100000
1
15.40
50
0.000000
0
POLYLINE
8
Soundings
40
10.000000
41
10.000000
70
0
66
1
0
VERTEX
8
Soundings
10
509708.575000
20
5459916.575000
30
15.400020
40
0.000000
41
0.000000
0
VERTEX
8
Soundings
10
509708.625000
20
5459916.625000
30
15.400020
40
0.000000
41
0.000000
0
VERTEX
8
Soundings
10
509708.675000
20
5459916.575000
30
15.400020
40
0.000000
41
0.000000
0
SEQEND
0
TEXT
8
Soundings
10
509733.625000
20
5459916.625000
30
15.300019
40
0.100000
1
15.30
50
0.000000
0
POLYLINE
8
Soundings
40
10.000000
41
10.000000
70
0
66
1
0
VERTEX
8
Soundings
10
509733.575000
20
5459916.575000
30
15.300019
40
0.000000
41
0.000000
0
VERTEX
8
Soundings
10
509733.625000
20
5459916.625000
30
15.300019
40
0.000000
41
0.000000
0
VERTEX
8
Soundings
10
509733.675000
20
5459916.575000
30
15.300019
40
0.000000
41
0.000000
0
SEQEND
0
TEXT
8
Soundings
10
509758.625000
20
5459916.625000
30
15.250019
40
0.100000
1
15.25
50
0.000000
0
POLYLINE
8
Soundings
40
10.000000
41
10.000000
70
0
66
1
0
VERTEX
8
Soundings
10
509758.575000
20
5459916.575000
30
15.250019
40
0.000000
41
0.000000
0
VERTEX
8
Soundings
10
509758.625000
20
5459916.625000
30
15.250019
40
0.000000
41
0.000000
0
VERTEX
8
Soundings
10
509758.675000
20
5459916.575000
30
15.250019
40
0.000000
41
0.000000
0
SEQEND
0
TEXT
8
Soundings
10
509783.625000
20
5459916.625000
30
15.250019
40
0.100000
1
15.25
50
0.000000
0
POLYLINE
8
Soundings
40
10.000000
41
10.000000
70
0
66
1
0
VERTEX
8
Soundings
10
509783.575000
20
5459916.575000
30
15.250019
40
0.000000
41
0.000000
0
VERTEX
8
Soundings
10
509783.625000
20
5459916.625000
30
15.250019
40
0.000000
41
0.000000
0
VERTEX
8
Soundings
10
509783.675000
20
5459916.575000
30
15.250019
40
0.000000
41
0.000000
0
SEQEND
0
TEXT
8
Soundings
10
509808.625000
20
5459916.625000
30
14.800019
40
0.100000
1
14.80
50
0.000000
0
POLYLINE
8
Soundings
40
10.000000
41
10.000000
70
0
66
1
0
VERTEX
8
Soundings
10
509808.575000
20
5459916.575000
30
14.800019
40
0.000000
41
0.000000
0
VERTEX
8
Soundings
10
509808.625000
20
5459916.625000
30
14.800019
40
0.000000
41
0.000000
0
VERTEX
8
Soundings
10
509808.675000
20
5459916.575000
30
14.800019
40
0.000000
41
0.000000
0
SEQEND
0
TEXT
8
Soundings
10
509583.625000
20
5459891.625000
30
15.750019
40
0.100000
1
15.75
50
0.000000
0
POLYLINE
8
Soundings
40
10.000000
41
10.000000
70
0
66
1
0
VERTEX
8
Soundings
10
509583.575000
20
5459891.575000
30
15.750019
40
0.000000
41
0.000000
0
VERTEX
8
Soundings
10
509583.625000
20
5459891.625000
30
15.750019
40
0.000000
41
0.000000
0
VERTEX
8
Soundings
10
509583.675000
20
5459891.575000
30
15.750019
40
0.000000
41
0.000000
0
SEQEND
0
TEXT
8
Soundings
10
509608.625000
20
5459891.625000
30
15.250019
40
0.100000
1
15.25
50
0.000000
0
POLYLINE
8
Soundings
40
10.000000
41
10.000000
70
0
66
1
0
VERTEX
8
Soundings
10
509608.575000
20
5459891.575000
30
15.250019
40
0.000000
41
0.000000
0
VERTEX
8
Soundings
10
509608.625000
20
5459891.625000
30
15.250019
40
0.000000
41
0.000000
0
VERTEX
8
Soundings
10
509608.675000
20
5459891.575000
30
15.250019
40
0.000000
41
0.000000
0
SEQEND
0
TEXT
8
Soundings
10
509633.625000
20
5459891.625000
30
15.350019
40
0.100000
1
15.35
50
0.000000
0
POLYLINE
8
Soundings
40
10.000000
41
10.000000
70
0
66
1
0
VERTEX
8
Soundings
10
509633.575000
20
5459891.575000
30
15.350019
40
0.000000
41
0.000000
0
VERTEX
8
Soundings
10
509633.625000
20
5459891.625000
30
15.350019
40
0.000000
41
0.000000
0
VERTEX
8
Soundings
10
509633.675000
20
5459891.575000
30
15.350019
40
0.000000
41
0.000000
0
SEQEND
0
TEXT
8
Soundings
10
509658.625000
20
5459891.625000
30
15.150020
40
0.100000
1
15.15
50
0.000000
0
POLYLINE
8
Soundings
40
10.000000
41
10.000000
70
0
66
1
0
VERTEX
8
Soundings
10
509658.575000
20
5459891.575000
30
15.150020
40
0.000000
41
0.000000
0
VERTEX
8
Soundings
10
509658.625000
20
5459891.625000
30
15.150020
40
0.000000
41
0.000000
0
VERTEX
8
Soundings
10
509658.675000
20
5459891.575000
30
15.150020
40
0.000000
41
0.000000
0
SEQEND
0
TEXT
8
Soundings
10
509683.625000
20
5459891.625000
30
15.350019
40
0.100000
1
15.35
50
0.000000
0
POLYLINE
8
Soundings
40
10.000000
41
10.000000
70
0
66
1
0
VERTEX
8
Soundings
10
509683.575000
20
5459891.575000
30
15.350019
40
0.000000
41
0.000000
0
VERTEX
8
Soundings
10
509683.625000
20
5459891.625000
30
15.350019
40
0.000000
41
0.000000
0
VERTEX
8
Soundings
10
509683.675000
20
5459891.575000
30
15.350019
40
0.000000
41
0.000000
0
SEQEND
0
TEXT
8
Soundings
10
509708.625000
20
5459891.625000
30
14.750019
40
0.100000
1
14.75
50
0.000000
0
POLYLINE
8
Soundings
40
10.000000
41
10.000000
70
0
66
1
0
VERTEX
8
Soundings
10
509708.575000
20
5459891.575000
30
14.750019
40
0.000000
41
0.000000
0
VERTEX
8
Soundings
10
509708.625000
20
5459891.625000
30
14.750019
40
0.000000
41
0.000000
0
VERTEX
8
Soundings
10
509708.675000
20
5459891.575000
30
14.750019
40
0.000000
41
0.000000
0
SEQEND
0
TEXT
8
Soundings
10
509733.625000
20
5459891.625000
30
15.100019
40
0.100000
1
15.10
50
0.000000
0
POLYLINE
8
Soundings
40
10.000000
41
10.000000
70
0
66
1
0
VERTEX
8
Soundings
10
509733.575000
20
5459891.575000
30
15.100019
40
0.000000
41
0.000000
0
VERTEX
8
Soundings
10
509733.625000
20
5459891.625000
30
15.100019
40
0.000000
41
0.000000
0
VERTEX
8
Soundings
10
509733.675000
20
5459891.575000
30
15.100019
40
0.000000
41
0.000000
0
SEQEND
0
TEXT
8
Soundings
10
509758.625000
20
5459891.625000
30
15.300019
40
0.100000
1
15.30
50
0.000000
0
POLYLINE
8
Soundings
40
10.000000
41
10.000000
70
0
66
1
0
VERTEX
8
Soundings
10
509758.575000
20
5459891.575000
30
15.300019
40
0.000000
41
0.000000
0
VERTEX
8
Soundings
10
509758.625000
20
5459891.625000
30
15.300019
40
0.000000
41
0.000000
0
VERTEX
8
Soundings
10
509758.675000
20
5459891.575000
30
15.300019
40
0.000000
41
0.000000
0
SEQEND
0
TEXT
8
Soundings
10
509783.625000
20
5459891.625000
30
15.000019
40
0.100000
1
15.00
50
0.000000
0
POLYLINE
8
Soundings
40
10.000000
41
10.000000
70
0
66
1
0
VERTEX
8
Soundings
10
509783.575000
20
5459891.575000
30
15.000019
40
0.000000
41
0.000000
0
VERTEX
8
Soundings
10
509783.625000
20
5459891.625000
30
15.000019
40
0.000000
41
0.000000
0
VERTEX
8
Soundings
10
509783.675000
20
5459891.575000
30
15.000019
40
0.000000
41
0.000000
0
SEQEND
0
TEXT
8
Soundings
10
509808.625000
20
5459891.625000
30
14.500019
40
0.100000
1
14.50
50
0.000000
0
POLYLINE
8
Soundings
40
10.000000
41
10.000000
70
0
66
1
0
VERTEX
8
Soundings
10
509808.575000
20
5459891.575000
30
14.500019
40
0.000000
41
0.000000
0
VERTEX
8
Soundings
10
509808.625000
20
5459891.625000
30
14.500019
40
0.000000
41
0.000000
0
VERTEX
8
Soundings
10
509808.675000
20
5459891.575000
30
14.500019
40
0.000000
41
0.000000
0
SEQEND
0
TEXT
8
Soundings
10
509833.625000
20
5459891.625000
30
15.300019
40
0.100000
1
15.30
50
0.000000
0
POLYLINE
8
Soundings
40
10.000000
41
10.000000
70
0
66
1
0
VERTEX
8
Soundings
10
509833.575000
20
5459891.575000
30
15.300019
40
0.000000
41
0.000000
0
VERTEX
8
Soundings
10
509833.625000
20
5459891.625000
30
15.300019
40
0.000000
41
0.000000
0
VERTEX
8
Soundings
10
509833.675000
20
5459891.575000
30
15.300019
40
0.000000
41
0.000000
0
SEQEND
0
TEXT
8
Soundings
10
509608.625000
20
5459866.625000
30
15.750019
40
0.100000
1
15.75
50
0.000000
0
POLYLINE
8
Soundings
40
10.000000
41
10.000000
70
0
66
1
0
VERTEX
8
Soundings
10
509608.575000
20
5459866.575000
30
15.750019
40
0.000000
41
0.000000
0
VERTEX
8
Soundings
10
509608.625000
20
5459866.625000
30
15.750019
40
0.000000
41
0.000000
0
VERTEX
8
Soundings
10
509608.675000
20
5459866.575000
30
15.750019
40
0.000000
41
0.000000
0
SEQEND
0
TEXT
8
Soundings
10
509633.625000
20
5459866.625000
30
15.050019
40
0.100000
1
15.05
50
0.000000
0
POLYLINE
8
Soundings
40
10.000000
41
10.000000
70
0
66
1
0
VERTEX
8
Soundings
10
509633.575000
20
5459866.575000
30
15.050019
40
0.000000
41
0.000000
0
VERTEX
8
Soundings
10
509633.625000
20
5459866.625000
30
15.050019
40
0.000000
41
0.000000
0
VERTEX
8
Soundings
10
509633.675000
20
5459866.575000
30
15.050019
40
0.000000
41
0.000000
0
SEQEND
0
TEXT
8
Soundings
10
509658.625000
20
5459866.625000
30
15.150020
40
0.100000
1
15.15
50
0.000000
0
POLYLINE
8
Soundings
40
10.000000
41
10.000000
70
0
66
1
0
VERTEX
8
Soundings
10
509658.575000
20
5459866.575000
30
15.150020
40
0.000000
41
0.000000
0
VERTEX
8
Soundings
10
509658.625000
20
5459866.625000
30
15.150020
40
0.000000
41
0.000000
0
VERTEX
8
Soundings
10
509658.675000
20
5459866.575000
30
15.150020
40
0.000000
41
0.000000
0
SEQEND
0
TEXT
8
Soundings
10
509683.625000
20
5459866.625000
30
15.050019
40
0.100000
1
15.05
50
0.000000
0
POLYLINE
8
Soundings
40
10.000000
41
10.000000
70
0
66
1
0
VERTEX
8
Soundings
10
509683.575000
20
5459866.575000
30
15.050019
40
0.000000
41
0.000000
0
VERTEX
8
Soundings
10
509683.625000
20
5459866.625000
30
15.050019
40
0.000000
41
0.000000
0
VERTEX
8
Soundings
10
509683.675000
20
5459866.575000
30
15.050019
40
0.000000
41
0.000000
0
SEQEND
0
TEXT
8
Soundings
10
509708.625000
20
5459866.625000
30
15.150020
40
0.100000
1
15.15
50
0.000000
0
POLYLINE
8
Soundings
40
10.000000
41
10.000000
70
0
66
1
0
VERTEX
8
Soundings
10
509708.575000
20
5459866.575000
30
15.150020
40
0.000000
41
0.000000
0
VERTEX
8
Soundings
10
509708.625000
20
5459866.625000
30
15.150020
40
0.000000
41
0.000000
0
VERTEX
8
Soundings
10
509708.675000
20
5459866.575000
30
15.150020
40
0.000000
41
0.000000
0
SEQEND
0
TEXT
8
Soundings
10
509733.625000
20
5459866.625000
30
14.850019
40
0.100000
1
14.85
50
0.000000
0
POLYLINE
8
Soundings
40
10.000000
41
10.000000
70
0
66
1
0
VERTEX
8
Soundings
10
509733.575000
20
5459866.575000
30
14.850019
40
0.000000
41
0.000000
0
VERTEX
8
Soundings
10
509733.625000
20
5459866.625000
30
14.850019
40
0.000000
41
0.000000
0
VERTEX
8
Soundings
10
509733.675000
20
5459866.575000
30
14.850019
40
0.000000
41
0.000000
0
SEQEND
0
TEXT
8
Soundings
10
509758.625000
20
5459866.625000
30
15.100019
40
0.100000
1
15.10
50
0.000000
0
POLYLINE
8
Soundings
40
10.000000
41
10.000000
70
0
66
1
0
VERTEX
8
Soundings
10
509758.575000
20
5459866.575000
30
15.100019
40
0.000000
41
0.000000
0
VERTEX
8
Soundings
10
509758.625000
20
5459866.625000
30
15.100019
40
0.000000
41
0.000000
0
VERTEX
8
Soundings
10
509758.675000
20
5459866.575000
30
15.100019
40
0.000000
41
0.000000
0
SEQEND
0
TEXT
8
Soundings
10
509783.625000
20
5459866.625000
30
15.500019
40
0.100000
1
15.50
50
0.000000
0
POLYLINE
8
Soundings
40
10.000000
41
10.000000
70
0
66
1
0
VERTEX
8
Soundings
10
509783.575000
20
5459866.575000
30
15.500019
40
0.000000
41
0.000000
0
VERTEX
8
Soundings
10
509783.625000
20
5459866.625000
30
15.500019
40
0.000000
41
0.000000
0
VERTEX
8
Soundings
10
509783.675000
20
5459866.575000
30
15.500019
40
0.000000
41
0.000000
0
SEQEND
0
TEXT
8
Soundings
10
509808.625000
20
5459866.625000
30
15.000019
40
0.100000
1
15.00
50
0.000000
0
POLYLINE
8
Soundings
40
10.000000
41
10.000000
70
0
66
1
0
VERTEX
8
Soundings
10
509808.575000
20
5459866.575000
30
15.000019
40
0.000000
41
0.000000
0
VERTEX
8
Soundings
10
509808.625000
20
5459866.625000
30
15.000019
40
0.000000
41
0.000000
0
VERTEX
8
Soundings
10
509808.675000
20
5459866.575000
30
15.000019
40
0.000000
41
0.000000
0
SEQEND
0
TEXT
8
Soundings
10
509833.625000
20
5459866.625000
30
14.950019
40
0.100000
1
14.95
50
0.000000
0
POLYLINE
8
Soundings
40
10.000000
41
10.000000
70
0
66
1
0
VERTEX
8
Soundings
10
509833.575000
20
5459866.575000
30
14.950019
40
0.000000
41
0.000000
0
VERTEX
8
Soundings
10
509833.625000
20
5459866.625000
30
14.950019
40
0.000000
41
0.000000
0
VERTEX
8
Soundings
10
509833.675000
20
5459866.575000
30
14.950019
40
0.000000
41
0.000000
0
SEQEND
0
TEXT
8
Soundings
10
509633.625000
20
5459841.625000
30
15.500019
40
0.100000
1
15.50
50
0.000000
0
POLYLINE
8
Soundings
40
10.000000
41
10.000000
70
0
66
1
0
VERTEX
8
Soundings
10
509633.575000
20
5459841.575000
30
15.500019
40
0.000000
41
0.000000
0
VERTEX
8
Soundings
10
509633.625000
20
5459841.625000
30
15.500019
40
0.000000
41
0.000000
0
VERTEX
8
Soundings
10
509633.675000
20
5459841.575000
30
15.500019
40
0.000000
41
0.000000
0
SEQEND
0
TEXT
8
Soundings
10
509658.625000
20
5459841.625000
30
15.850019
40
0.100000
1
15.85
50
0.000000
0
POLYLINE
8
Soundings
40
10.000000
41
10.000000
70
0
66
1
0
VERTEX
8
Soundings
10
509658.575000
20
5459841.575000
30
15.850019
40
0.000000
41
0.000000
0
VERTEX
8
Soundings
10
509658.625000
20
5459841.625000
30
15.850019
40
0.000000
41
0.000000
0
VERTEX
8
Soundings
10
509658.675000
20
5459841.575000
30
15.850019
40
0.000000
41
0.000000
0
SEQEND
0
TEXT
8
Soundings
10
509683.625000
20
5459841.625000
30
15.400020
40
0.100000
1
15.40
50
0.000000
0
POLYLINE
8
Soundings
40
10.000000
41
10.000000
70
0
66
1
0
VERTEX
8
Soundings
10
509683.575000
20
5459841.575000
30
15.400020
40
0.000000
41
0.000000
0
VERTEX
8
Soundings
10
509683.625000
20
5459841.625000
30
15.400020
40
0.000000
41
0.000000
0
VERTEX
8
Soundings
10
509683.675000
20
5459841.575000
30
15.400020
40
0.000000
41
0.000000
0
SEQEND
0
TEXT
8
Soundings
10
509708.625000
20
5459841.625000
30
15.150020
40
0.100000
1
15.15
50
0.000000
0
POLYLINE
8
Soundings
40
10.000000
41
10.000000
70
0
66
1
0
VERTEX
8
Soundings
10
509708.575000
20
5459841.575000
30
15.150020
40
0.000000
41
0.000000
0
VERTEX
8
Soundings
10
509708.625000
20
5459841.625000
30
15.150020
40
0.000000
41
0.000000
0
VERTEX
8
Soundings
10
509708.675000
20
5459841.575000
30
15.150020
40
0.000000
41
0.000000
0
SEQEND
0
TEXT
8
Soundings
10
509733.625000
20
5459841.625000
30
15.050019
40
0.100000
1
15.05
50
0.000000
0
POLYLINE
8
Soundings
40
10.000000
41
10.000000
70
0
66
1
0
VERTEX
8
Soundings
10
509733.575000
20
5459841.575000
30
15.050019
40
0.000000
41
0.000000
0
VERTEX
8
Soundings
10
509733.625000
20
5459841.625000
30
15.050019
40
0.000000
41
0.000000
0
VERTEX
8
Soundings
10
509733.675000
20
5459841.575000
30
15.050019
40
0.000000
41
0.000000
0
SEQEND
0
TEXT
8
Soundings
10
509758.625000
20
5459841.625000
30
14.900020
40
0.100000
1
14.90
50
0.000000
0
POLYLINE
8
Soundings
40
10.000000
41
10.000000
70
0
66
1
0
VERTEX
8
Soundings
10
509758.575000
20
5459841.575000
30
14.900020
40
0.000000
41
0.000000
0
VERTEX
8
Soundings
10
509758.625000
20
5459841.625000
30
14.900020
40
0.000000
41
0.000000
0
VERTEX
8
Soundings
10
509758.675000
20
5459841.575000
30
14.900020
40
0.000000
41
0.000000
0
SEQEND
0
TEXT
8
Soundings
10
509783.625000
20
5459841.625000
30
15.050019
40
0.100000
1
15.05
50
0.000000
0
POLYLINE
8
Soundings
40
10.000000
41
10.000000
70
0
66
1
0
VERTEX
8
Soundings
10
509783.575000
20
5459841.575000
30
15.050019
40
0.000000
41
0.000000
0
VERTEX
8
Soundings
10
509783.625000
20
5459841.625000
30
15.050019
40
0.000000
41
0.000000
0
VERTEX
8
Soundings
10
509783.675000
20
5459841.575000
30
15.050019
40
0.000000
41
0.000000
0
SEQEND
0
TEXT
8
Soundings
10
509808.625000
20
5459841.625000
30
15.050019
40
0.100000
1
15.05
50
0.000000
0
POLYLINE
8
Soundings
40
10.000000
41
10.000000
70
0
66
1
0
VERTEX
8
Soundings
10
509808.575000
20
5459841.575000
30
15.050019
40
0.000000
41
0.000000
0
VERTEX
8
Soundings
10
509808.625000
20
5459841.625000
30
15.050019
40
0.000000
41
0.000000
0
VERTEX
8
Soundings
10
509808.675000
20
5459841.575000
30
15.050019
40
0.000000
41
0.000000
0
SEQEND
0
TEXT
8
Soundings
10
509833.625000
20
5459841.625000
30
14.850019
40
0.100000
1
14.85
50
0.000000
0
POLYLINE
8
Soundings
40
10.000000
41
10.000000
70
0
66
1
0
VERTEX
8
Soundings
10
509833.575000
20
5459841.575000
30
14.850019
40
0.000000
41
0.000000
0
VERTEX
8
Soundings
10
509833.625000
20
5459841.625000
30
14.850019
40
0.000000
41
0.000000
0
VERTEX
8
Soundings
10
509833.675000
20
5459841.575000
30
14.850019
40
0.000000
41
0.000000
0
SEQEND
0
TEXT
8
Soundings
10
509858.625000
20
5459841.625000
30
14.850019
40
0.100000
1
14.85
50
0.000000
0
POLYLINE
8
Soundings
40
10.000000
41
10.000000
70
0
66
1
0
VERTEX
8
Soundings
10
509858.575000
20
5459841.575000
30
14.850019
40
0.000000
41
0.000000
0
VERTEX
8
Soundings
10
509858.625000
20
5459841.625000
30
14.850019
40
0.000000
41
0.000000
0
VERTEX
8
Soundings
10
509858.675000
20
5459841.575000
30
14.850019
40
0.000000
41
0.000000
0
SEQEND
0
TEXT
8
Soundings
10
509658.625000
20
5459816.625000
30
15.800019
40
0.100000
1
15.80
50
0.000000
0
POLYLINE
8
Soundings
40
10.000000
41
10.000000
70
0
66
1
0
VERTEX
8
Soundings
10
509658.575000
20
5459816.575000
30
15.800019
40
0.000000
41
0.000000
0
VERTEX
8
Soundings
10
509658.625000
20
5459816.625000
30
15.800019
40
0.000000
41
0.000000
0
VERTEX
8
Soundings
10
509658.675000
20
5459816.575000
30
15.800019
40
0.000000
41
0.000000
0
SEQEND
0
TEXT
8
Soundings
10
509683.625000
20
5459816.625000
30
15.450019
40
0.100000
1
15.45
50
0.000000
0
POLYLINE
8
Soundings
40
10.000000
41
10.000000
70
0
66
1
0
VERTEX
8
Soundings
10
509683.575000
20
5459816.575000
30
15.450019
40
0.000000
41
0.000000
0
VERTEX
8
Soundings
10
509683.625000
20
5459816.625000
30
15.450019
40
0.000000
41
0.000000
0
VERTEX
8
Soundings
10
509683.675000
20
5459816.575000
30
15.450019
40
0.000000
41
0.000000
0
SEQEND
0
TEXT
8
Soundings
10
509708.625000
20
5459816.625000
30
14.750019
40
0.100000
1
14.75
50
0.000000
0
POLYLINE
8
Soundings
40
10.000000
41
10.000000
70
0
66
1
0
VERTEX
8
Soundings
10
509708.575000
20
5459816.575000
30
14.750019
40
0.000000
41
0.000000
0
VERTEX
8
Soundings
10
509708.625000
20
5459816.625000
30
14.750019
40
0.000000
41
0.000000
0
VERTEX
8
Soundings
10
509708.675000
20
5459816.575000
30
14.750019
40
0.000000
41
0.000000
0
SEQEND
0
TEXT
8
Soundings
10
509758.625000
20
5459816.625000
30
15.100019
40
0.100000
1
15.10
50
0.000000
0
POLYLINE
8
Soundings
40
10.000000
41
10.000000
70
0
66
1
0
VERTEX
8
Soundings
10
509758.575000
20
5459816.575000
30
15.100019
40
0.000000
41
0.000000
0
VERTEX
8
Soundings
10
509758.625000
20
5459816.625000
30
15.100019
40
0.000000
41
0.000000
0
VERTEX
8
Soundings
10
509758.675000
20
5459816.575000
30
15.100019
40
0.000000
41
0.000000
0
SEQEND
0
TEXT
8
Soundings
10
509783.625000
20
5459816.625000
30
15.250019
40
0.100000
1
15.25
50
0.000000
0
POLYLINE
8
Soundings
40
10.000000
41
10.000000
70
0
66
1
0
VERTEX
8
Soundings
10
509783.575000
20
5459816.575000
30
15.250019
40
0.000000
41
0.000000
0
VERTEX
8
Soundings
10
509783.625000
20
5459816.625000
30
15.250019
40
0.000000
41
0.000000
0
VERTEX
8
Soundings
10
509783.675000
20
5459816.575000
30
15.250019
40
0.000000
41
0.000000
0
SEQEND
0
TEXT
8
Soundings
10
509808.625000
20
5459816.625000
30
15.950019
40
0.100000
1
15.95
50
0.000000
0
POLYLINE
8
Soundings
40
10.000000
41
10.000000
70
0
66
1
0
VERTEX
8
Soundings
10
509808.575000
20
5459816.575000
30
15.950019
40
0.000000
41
0.000000
0
VERTEX
8
Soundings
10
509808.625000
20
5459816.625000
30
15.950019
40
0.000000
41
0.000000
0
VERTEX
8
Soundings
10
509808.675000
20
5459816.575000
30
15.950019
40
0.000000
41
0.000000
0
SEQEND
0
TEXT
8
Soundings
10
509833.625000
20
5459816.625000
30
15.100019
40
0.100000
1
15.10
50
0.000000
0
POLYLINE
8
Soundings
40
10.000000
41
10.000000
70
0
66
1
0
VERTEX
8
Soundings
10
509833.575000
20
5459816.575000
30
15.100019
40
0.000000
41
0.000000
0
VERTEX
8
Soundings
10
509833.625000
20
5459816.625000
30
15.100019
40
0.000000
41
0.000000
0
VERTEX
8
Soundings
10
509833.675000
20
5459816.575000
30
15.100019
40
0.000000
41
0.000000
0
SEQEND
0
TEXT
8
Soundings
10
509858.625000
20
5459816.625000
30
15.200019
40
0.100000
1
15.20
50
0.000000
0
POLYLINE
8
Soundings
40
10.000000
41
10.000000
70
0
66
1
0
VERTEX
8
Soundings
10
509858.575000
20
5459816.575000
30
15.200019
40
0.000000
41
0.000000
0
VERTEX
8
Soundings
10
509858.625000
20
5459816.625000
30
15.200019
40
0.000000
41
0.000000
0
VERTEX
8
Soundings
10
509858.675000
20
5459816.575000
30
15.200019
40
0.000000
41
0.000000
0
SEQEND
0
TEXT
8
Soundings
10
509683.625000
20
5459791.625000
30
15.450019
40
0.100000
1
15.45
50
0.000000
0
POLYLINE
8
Soundings
40
10.000000
41
10.000000
70
0
66
1
0
VERTEX
8
Soundings
10
509683.575000
20
5459791.575000
30
15.450019
40
0.000000
41
0.000000
0
VERTEX
8
Soundings
10
509683.625000
20
5459791.625000
30
15.450019
40
0.000000
41
0.000000
0
VERTEX
8
Soundings
10
509683.675000
20
5459791.575000
30
15.450019
40
0.000000
41
0.000000
0
SEQEND
0
TEXT
8
Soundings
10
509708.625000
20
5459791.625000
30
15.250019
40
0.100000
1
15.25
50
0.000000
0
POLYLINE
8
Soundings
40
10.000000
41
10.000000
70
0
66
1
0
VERTEX
8
Soundings
10
509708.575000
20
5459791.575000
30
15.250019
40
0.000000
41
0.000000
0
VERTEX
8
Soundings
10
509708.625000
20
5459791.625000
30
15.250019
40
0.000000
41
0.000000
0
VERTEX
8
Soundings
10
509708.675000
20
5459791.575000
30
15.250019
40
0.000000
41
0.000000
0
SEQEND
0
TEXT
8
Soundings
10
509733.625000
20
5459791.625000
30
14.950019
40
0.100000
1
14.95
50
0.000000
0
POLYLINE
8
Soundings
40
10.000000
41
10.000000
70
0
66
1
0
VERTEX
8
Soundings
10
509733.575000
20
5459791.575000
30
14.950019
40
0.000000
41
0.000000
0
VERTEX
8
Soundings
10
509733.625000
20
5459791.625000
30
14.950019
40
0.000000
41
0.000000
0
VERTEX
8
Soundings
10
509733.675000
20
5459791.575000
30
14.950019
40
0.000000
41
0.000000
0
SEQEND
0
TEXT
8
Soundings
10
509758.625000
20
5459791.625000
30
15.650020
40
0.100000
1
15.65
50
0.000000
0
POLYLINE
8
Soundings
40
10.000000
41
10.000000
70
0
66
1
0
VERTEX
8
Soundings
10
509758.575000
20
5459791.575000
30
15.650020
40
0.000000
41
0.000000
0
VERTEX
8
Soundings
10
509758.625000
20
5459791.625000
30
15.650020
40
0.000000
41
0.000000
0
VERTEX
8
Soundings
10
509758.675000
20
5459791.575000
30
15.650020
40
0.000000
41
0.000000
0
SEQEND
0
TEXT
8
Soundings
10
509783.625000
20
5459791.625000
30
15.200019
40
0.100000
1
15.20
50
0.000000
0
POLYLINE
8
Soundings
40
10.000000
41
10.000000
70
0
66
1
0
VERTEX
8
Soundings
10
509783.575000
20
5459791.575000
30
15.200019
40
0.000000
41
0.000000
0
VERTEX
8
Soundings
10
509783.625000
20
5459791.625000
30
15.200019
40
0.000000
41
0.000000
0
VERTEX
8
Soundings
10
509783.675000
20
5459791.575000
30
15.200019
40
0.000000
41
0.000000
0
SEQEND
0
TEXT
8
Soundings
10
509808.625000
20
5459791.625000
30
15.250019
40
0.100000
1
15.25
50
0.000000
0
POLYLINE
8
Soundings
40
10.000000
41
10.000000
70
0
66
1
0
VERTEX
8
Soundings
10
509808.575000
20
5459791.575000
30
15.250019
40
0.000000
41
0.000000
0
VERTEX
8
Soundings
10
509808.625000
20
5459791.625000
30
15.250019
40
0.000000
41
0.000000
0
VERTEX
8
Soundings
10
509808.675000
20
5459791.575000
30
15.250019
40
0.000000
41
0.000000
0
SEQEND
0
TEXT
8
Soundings
10
509833.625000
20
5459791.625000
30
15.450019
40
0.100000
1
15.45
50
0.000000
0
POLYLINE
8
Soundings
40
10.000000
41
10.000000
70
0
66
1
0
VERTEX
8
Soundings
10
509833.575000
20
5459791.575000
30
15.450019
40
0.000000
41
0.000000
0
VERTEX
8
Soundings
10
509833.625000
20
5459791.625000
30
15.450019
40
0.000000
41
0.000000
0
VERTEX
8
Soundings
10
509833.675000
20
5459791.575000
30
15.450019
40
0.000000
41
0.000000
0
SEQEND
0
TEXT
8
Soundings
10
509858.625000
20
5459791.625000
30
15.550019
40
0.100000
1
15.55
50
0.000000
0
POLYLINE
8
Soundings
40
10.000000
41
10.000000
70
0
66
1
0
VERTEX
8
Soundings
10
509858.575000
20
5459791.575000
30
15.550019
40
0.000000
41
0.000000
0
VERTEX
8
Soundings
10
509858.625000
20
5459791.625000
30
15.550019
40
0.000000
41
0.000000
0
VERTEX
8
Soundings
10
509858.675000
20
5459791.575000
30
15.550019
40
0.000000
41
0.000000
0
SEQEND
0
TEXT
8
Soundings
10
509883.625000
20
5459791.625000
30
15.350019
40
0.100000
1
15.35
50
0.000000
0
POLYLINE
8
Soundings
40
10.000000
41
10.000000
70
0
66
1
0
VERTEX
8
Soundings
10
509883.575000
20
5459791.575000
30
15.350019
40
0.000000
41
0.000000
0
VERTEX
8
Soundings
10
509883.625000
20
5459791.625000
30
15.350019
40
0.000000
41
0.000000
0
VERTEX
8
Soundings
10
509883.675000
20
5459791.575000
30
15.350019
40
0.000000
41
0.000000
0
SEQEND
0
TEXT
8
Soundings
10
509708.625000
20
5459766.625000
30
16.050018
40
0.100000
1
16.05
50
0.000000
0
POLYLINE
8
Soundings
40
10.000000
41
10.000000
70
0
66
1
0
VERTEX
8
Soundings
10
509708.575000
20
5459766.575000
30
16.050018
40
0.000000
41
0.000000
0
VERTEX
8
Soundings
10
509708.625000
20
5459766.625000
30
16.050018
40
0.000000
41
0.000000
0
VERTEX
8
Soundings
10
509708.675000
20
5459766.575000
30
16.050018
40
0.000000
41
0.000000
0
SEQEND
0
TEXT
8
Soundings
10
509733.625000
20
5459766.625000
30
15.450019
40
0.100000
1
15.45
50
0.000000
0
POLYLINE
8
Soundings
40
10.000000
41
10.000000
70
0
66
1
0
VERTEX
8
Soundings
10
509733.575000
20
5459766.575000
30
15.450019
40
0.000000
41
0.000000
0
VERTEX
8
Soundings
10
509733.625000
20
5459766.625000
30
15.450019
40
0.000000
41
0.000000
0
VERTEX
8
Soundings
10
509733.675000
20
5459766.575000
30
15.450019
40
0.000000
41
0.000000
0
SEQEND
0
TEXT
8
Soundings
10
509758.625000
20
5459766.625000
30
15.550019
40
0.100000
1
15.55
50
0.000000
0
POLYLINE
8
Soundings
40
10.000000
41
10.000000
70
0
66
1
0
VERTEX
8
Soundings
10
509758.575000
20
5459766.575000
30
15.550019
40
0.000000
41
0.000000
0
VERTEX
8
Soundings
10
509758.625000
20
5459766.625000
30
15.550019
40
0.000000
41
0.000000
0
VERTEX
8
Soundings
10
509758.675000
20
5459766.575000
30
15.550019
40
0.000000
41
0.000000
0
SEQEND
0
TEXT
8
Soundings
10
509783.625000
20
5459766.625000
30
15.400020
40
0.100000
1
15.40
50
0.000000
0
POLYLINE
8
Soundings
40
10.000000
41
10.000000
70
0
66
1
0
VERTEX
8
Soundings
10
509783.575000
20
5459766.575000
30
15.400020
40
0.000000
41
0.000000
0
VERTEX
8
Soundings
10
509783.625000
20
5459766.625000
30
15.400020
40
0.000000
41
0.000000
0
VERTEX
8
Soundings
10
509783.675000
20
5459766.575000
30
15.400020
40
0.000000
41
0.000000
0
SEQEND
0
TEXT
8
Soundings
10
509808.625000
20
5459766.625000
30
15.250019
40
0.100000
1
15.25
50
0.000000
0
POLYLINE
8
Soundings
40
10.000000
41
10.000000
70
0
66
1
0
VERTEX
8
Soundings
10
509808.575000
20
5459766.575000
30
15.250019
40
0.000000
41
0.000000
0
VERTEX
8
Soundings
10
509808.625000
20
5459766.625000
30
15.250019
40
0.000000
41
0.000000
0
VERTEX
8
Soundings
10
509808.675000
20
5459766.575000
30
15.250019
40
0.000000
41
0.000000
0
SEQEND
0
TEXT
8
Soundings
10
509833.625000
20
5459766.625000
30
15.600019
40
0.100000
1
15.60
50
0.000000
0
POLYLINE
8
Soundings
40
10.000000
41
10.000000
70
0
66
1
0
VERTEX
8
Soundings
10
509833.575000
20
5459766.575000
30
15.600019
40
0.000000
41
0.000000
0
VERTEX
8
Soundings
10
509833.625000
20
5459766.625000
30
15.600019
40
0.000000
41
0.000000
0
VERTEX
8
Soundings
10
509833.675000
20
5459766.575000
30
15.600019
40
0.000000
41
0.000000
0
SEQEND
0
TEXT
8
Soundings
10
509858.625000
20
5459766.625000
30
15.050019
40
0.100000
1
15.05
50
0.000000
0
POLYLINE
8
Soundings
40
10.000000
41
10.000000
70
0
66
1
0
VERTEX
8
Soundings
10
509858.575000
20
5459766.575000
30
15.050019
40
0.000000
41
0.000000
0
VERTEX
8
Soundings
10
509858.625000
20
5459766.625000
30
15.050019
40
0.000000
41
0.000000
0
VERTEX
8
Soundings
10
509858.675000
20
5459766.575000
30
15.050019
40
0.000000
41
0.000000
0
SEQEND
0
TEXT
8
Soundings
10
509883.625000
20
5459766.625000
30
15.050019
40
0.100000
1
15.05
50
0.000000
0
POLYLINE
8
Soundings
40
10.000000
41
10.000000
70
0
66
1
0
VERTEX
8
Soundings
10
509883.575000
20
5459766.575000
30
15.050019
40
0.000000
41
0.000000
0
VERTEX
8
Soundings
10
509883.625000
20
5459766.625000
30
15.050019
40
0.000000
41
0.000000
0
VERTEX
8
Soundings
10
509883.675000
20
5459766.575000
30
15.050019
40
0.000000
41
0.000000
0
SEQEND
0
TEXT
8
Soundings
10
509908.625000
20
5459766.625000
30
15.250019
40
0.100000
1
15.25
50
0.000000
0
POLYLINE
8
Soundings
40
10.000000
41
10.000000
70
0
66
1
0
VERTEX
8
Soundings
10
509908.575000
20
5459766.575000
30
15.250019
40
0.000000
41
0.000000
0
VERTEX
8
Soundings
10
509908.625000
20
5459766.625000
30
15.250019
40
0.000000
41
0.000000
0
VERTEX
8
Soundings
10
509908.675000
20
5459766.575000
30
15.250019
40
0.000000
41
0.000000
0
SEQEND
0
TEXT
8
Soundings
10
509733.625000
20
5459741.625000
30
16.100019
40
0.100000
1
16.10
50
0.000000
0
POLYLINE
8
Soundings
40
10.000000
41
10.000000
70
0
66
1
0
VERTEX
8
Soundings
10
509733.575000
20
5459741.575000
30
16.100019
40
0.000000
41
0.000000
0
VERTEX
8
Soundings
10
509733.625000
20
5459741.625000
30
16.100019
40
0.000000
41
0.000000
0
VERTEX
8
Soundings
10
509733.675000
20
5459741.575000
30
16.100019
40
0.000000
41
0.000000
0
SEQEND
0
TEXT
8
Soundings
10
509758.625000
20
5459741.625000
30
15.400020
40
0.100000
1
15.40
50
0.000000
0
POLYLINE
8
Soundings
40
10.000000
41
10.000000
70
0
66
1
0
VERTEX
8
Soundings
10
509758.575000
20
5459741.575000
30
15.400020
40
0.000000
41
0.000000
0
VERTEX
8
Soundings
10
509758.625000
20
5459741.625000
30
15.400020
40
0.000000
41
0.000000
0
VERTEX
8
Soundings
10
509758.675000
20
5459741.575000
30
15.400020
40
0.000000
41
0.000000
0
SEQEND
0
TEXT
8
Soundings
10
509783.625000
20
5459741.625000
30
15.800019
40
0.100000
1
15.80
50
0.000000
0
POLYLINE
8
Soundings
40
10.000000
41
10.000000
70
0
66
1
0
VERTEX
8
Soundings
10
509783.575000
20
5459741.575000
30
15.800019
40
0.000000
41
0.000000
0
VERTEX
8
Soundings
10
509783.625000
20
5459741.625000
30
15.800019
40
0.000000
41
0.000000
0
VERTEX
8
Soundings
10
509783.675000
20
5459741.575000
30
15.800019
40
0.000000
41
0.000000
0
SEQEND
0
TEXT
8
Soundings
10
509808.625000
20
5459741.625000
30
15.400020
40
0.100000
1
15.40
50
0.000000
0
POLYLINE
8
Soundings
40
10.000000
41
10.000000
70
0
66
1
0
VERTEX
8
Soundings
10
509808.575000
20
5459741.575000
30
15.400020
40
0.000000
41
0.000000
0
VERTEX
8
Soundings
10
509808.625000
20
5459741.625000
30
15.400020
40
0.000000
41
0.000000
0
VERTEX
8
Soundings
10
509808.675000
20
5459741.575000
30
15.400020
40
0.000000
41
0.000000
0
SEQEND
0
TEXT
8
Soundings
10
509833.625000
20
5459741.625000
30
14.950019
40
0.100000
1
14.95
50
0.000000
0
POLYLINE
8
Soundings
40
10.000000
41
10.000000
70
0
66
1
0
VERTEX
8
Soundings
10
509833.575000
20
5459741.575000
30
14.950019
40
0.000000
41
0.000000
0
VERTEX
8
Soundings
10
509833.625000
20
5459741.625000
30
14.950019
40
0.000000
41
0.000000
0
VERTEX
8
Soundings
10
509833.675000
20
5459741.575000
30
14.950019
40
0.000000
41
0.000000
0
SEQEND
0
TEXT
8
Soundings
10
509858.625000
20
5459741.625000
30
15.100019
40
0.100000
1
15.10
50
0.000000
0
POLYLINE
8
Soundings
40
10.000000
41
10.000000
70
0
66
1
0
VERTEX
8
Soundings
10
509858.575000
20
5459741.575000
30
15.100019
40
0.000000
41
0.000000
0
VERTEX
8
Soundings
10
509858.625000
20
5459741.625000
30
15.100019
40
0.000000
41
0.000000
0
VERTEX
8
Soundings
10
509858.675000
20
5459741.575000
30
15.100019
40
0.000000
41
0.000000
0
SEQEND
0
TEXT
8
Soundings
10
509883.625000
20
5459741.625000
30
14.700019
40
0.100000
1
14.70
50
0.000000
0
POLYLINE
8
Soundings
40
10.000000
41
10.000000
70
0
66
1
0
VERTEX
8
Soundings
10
509883.575000
20
5459741.575000
30
14.700019
40
0.000000
41
0.000000
0
VERTEX
8
Soundings
10
509883.625000
20
5459741.625000
30
14.700019
40
0.000000
41
0.000000
0
VERTEX
8
Soundings
10
509883.675000
20
5459741.575000
30
14.700019
40
0.000000
41
0.000000
0
SEQEND
0
TEXT
8
Soundings
10
509908.625000
20
5459741.625000
30
14.400020
40
0.100000
1
14.40
50
0.000000
0
POLYLINE
8
Soundings
40
10.000000
41
10.000000
70
0
66
1
0
VERTEX
8
Soundings
10
509908.575000
20
5459741.575000
30
14.400020
40
0.000000
41
0.000000
0
VERTEX
8
Soundings
10
509908.625000
20
5459741.625000
30
14.400020
40
0.000000
41
0.000000
0
VERTEX
8
Soundings
10
509908.675000
20
5459741.575000
30
14.400020
40
0.000000
41
0.000000
0
SEQEND
0
TEXT
8
Soundings
10
509933.625000
20
5459741.625000
30
14.900020
40
0.100000
1
14.90
50
0.000000
0
POLYLINE
8
Soundings
40
10.000000
41
10.000000
70
0
66
1
0
VERTEX
8
Soundings
10
509933.575000
20
5459741.575000
30
14.900020
40
0.000000
41
0.000000
0
VERTEX
8
Soundings
10
509933.625000
20
5459741.625000
30
14.900020
40
0.000000
41
0.000000
0
VERTEX
8
Soundings
10
509933.675000
20
5459741.575000
30
14.900020
40
0.000000
41
0.000000
0
SEQEND
0
TEXT
8
Soundings
10
509733.625000
20
5459716.625000
30
15.800019
40
0.100000
1
15.80
50
0.000000
0
POLYLINE
8
Soundings
40
10.000000
41
10.000000
70
0
66
1
0
VERTEX
8
Soundings
10
509733.575000
20
5459716.575000
30
15.800019
40
0.000000
41
0.000000
0
VERTEX
8
Soundings
10
509733.625000
20
5459716.625000
30
15.800019
40
0.000000
41
0.000000
0
VERTEX
8
Soundings
10
509733.675000
20
5459716.575000
30
15.800019
40
0.000000
41
0.000000
0
SEQEND
0
TEXT
8
Soundings
10
509758.625000
20
5459716.625000
30
16.150019
40
0.100000
1
16.15
50
0.000000
0
POLYLINE
8
Soundings
40
10.000000
41
10.000000
70
0
66
1
0
VERTEX
8
Soundings
10
509758.575000
20
5459716.575000
30
16.150019
40
0.000000
41
0.000000
0
VERTEX
8
Soundings
10
509758.625000
20
5459716.625000
30
16.150019
40
0.000000
41
0.000000
0
VERTEX
8
Soundings
10
509758.675000
20
5459716.575000
30
16.150019
40
0.000000
41
0.000000
0
SEQEND
0
TEXT
8
Soundings
10
509783.625000
20
5459716.625000
30
15.600019
40
0.100000
1
15.60
50
0.000000
0
POLYLINE
8
Soundings
40
10.000000
41
10.000000
70
0
66
1
0
VERTEX
8
Soundings
10
509783.575000
20
5459716.575000
30
15.600019
40
0.000000
41
0.000000
0
VERTEX
8
Soundings
10
509783.625000
20
5459716.625000
30
15.600019
40
0.000000
41
0.000000
0
VERTEX
8
Soundings
10
509783.675000
20
5459716.575000
30
15.600019
40
0.000000
41
0.000000
0
SEQEND
0
TEXT
8
Soundings
10
509808.625000
20
5459716.625000
30
15.500019
40
0.100000
1
15.50
50
0.000000
0
POLYLINE
8
Soundings
40
10.000000
41
10.000000
70
0
66
1
0
VERTEX
8
Soundings
10
509808.575000
20
5459716.575000
30
15.500019
40
0.000000
41
0.000000
0
VERTEX
8
Soundings
10
509808.625000
20
5459716.625000
30
15.500019
40
0.000000
41
0.000000
0
VERTEX
8
Soundings
10
509808.675000
20
5459716.575000
30
15.500019
40
0.000000
41
0.000000
0
SEQEND
0
TEXT
8
Soundings
10
509833.625000
20
5459716.625000
30
15.600019
40
0.100000
1
15.60
50
0.000000
0
POLYLINE
8
Soundings
40
10.000000
41
10.000000
70
0
66
1
0
VERTEX
8
Soundings
10
509833.575000
20
5459716.575000
30
15.600019
40
0.000000
41
0.000000
0
VERTEX
8
Soundings
10
509833.625000
20
5459716.625000
30
15.600019
40
0.000000
41
0.000000
0
VERTEX
8
Soundings
10
509833.675000
20
5459716.575000
30
15.600019
40
0.000000
41
0.000000
0
SEQEND
0
TEXT
8
Soundings
10
509858.625000
20
5459716.625000
30
14.850019
40
0.100000
1
14.85
50
0.000000
0
POLYLINE
8
Soundings
40
10.000000
41
10.000000
70
0
66
1
0
VERTEX
8
Soundings
10
509858.575000
20
5459716.575000
30
14.850019
40
0.000000
41
0.000000
0
VERTEX
8
Soundings
10
509858.625000
20
5459716.625000
30
14.850019
40
0.000000
41
0.000000
0
VERTEX
8
Soundings
10
509858.675000
20
5459716.575000
30
14.850019
40
0.000000
41
0.000000
0
SEQEND
0
TEXT
8
Soundings
10
509883.625000
20
5459716.625000
30
14.800019
40
0.100000
1
14.80
50
0.000000
0
POLYLINE
8
Soundings
40
10.000000
41
10.000000
70
0
66
1
0
VERTEX
8
Soundings
10
509883.575000
20
5459716.575000
30
14.800019
40
0.000000
41
0.000000
0
VERTEX
8
Soundings
10
509883.625000
20
5459716.625000
30
14.800019
40
0.000000
41
0.000000
0
VERTEX
8
Soundings
10
509883.675000
20
5459716.575000
30
14.800019
40
0.000000
41
0.000000
0
SEQEND
0
TEXT
8
Soundings
10
509908.625000
20
5459716.625000
30
14.600019
40
0.100000
1
14.60
50
0.000000
0
POLYLINE
8
Soundings
40
10.000000
41
10.000000
70
0
66
1
0
VERTEX
8
Soundings
10
509908.575000
20
5459716.575000
30
14.600019
40
0.000000
41
0.000000
0
VERTEX
8
Soundings
10
509908.625000
20
5459716.625000
30
14.600019
40
0.000000
41
0.000000
0
VERTEX
8
Soundings
10
509908.675000
20
5459716.575000
30
14.600019
40
0.000000
41
0.000000
0
SEQEND
0
TEXT
8
Soundings
10
509933.625000
20
5459716.625000
30
14.450019
40
0.100000
1
14.45
50
0.000000
0
POLYLINE
8
Soundings
40
10.000000
41
10.000000
70
0
66
1
0
VERTEX
8
Soundings
10
509933.575000
20
5459716.575000
30
14.450019
40
0.000000
41
0.000000
0
VERTEX
8
Soundings
10
509933.625000
20
5459716.625000
30
14.450019
40
0.000000
41
0.000000
0
VERTEX
8
Soundings
10
509933.675000
20
5459716.575000
30
14.450019
40
0.000000
41
0.000000
0
SEQEND
0
TEXT
8
Soundings
10
509958.625000
20
5459716.625000
30
11.750019
40
0.100000
1
11.75
50
0.000000
0
POLYLINE
8
Soundings
40
10.000000
41
10.000000
70
0
66
1
0
VERTEX
8
Soundings
10
509958.575000
20
5459716.575000
30
11.750019
40
0.000000
41
0.000000
0
VERTEX
8
Soundings
10
509958.625000
20
5459716.625000
30
11.750019
40
0.000000
41
0.000000
0
VERTEX
8
Soundings
10
509958.675000
20
5459716.575000
30
11.750019
40
0.000000
41
0.000000
0
SEQEND
0
TEXT
8
Soundings
10
509758.625000
20
5459691.625000
30
15.650020
40
0.100000
1
15.65
50
0.000000
0
POLYLINE
8
Soundings
40
10.000000
41
10.000000
70
0
66
1
0
VERTEX
8
Soundings
10
509758.575000
20
5459691.575000
30
15.650020
40
0.000000
41
0.000000
0
VERTEX
8
Soundings
10
509758.625000
20
5459691.625000
30
15.650020
40
0.000000
41
0.000000
0
VERTEX
8
Soundings
10
509758.675000
20
5459691.575000
30
15.650020
40
0.000000
41
0.000000
0
SEQEND
0
TEXT
8
Soundings
10
509783.625000
20
5459691.625000
30
16.400019
40
0.100000
1
16.40
50
0.000000
0
POLYLINE
8
Soundings
40
10.000000
41
10.000000
70
0
66
1
0
VERTEX
8
Soundings
10
509783.575000
20
5459691.575000
30
16.400019
40
0.000000
41
0.000000
0
VERTEX
8
Soundings
10
509783.625000
20
5459691.625000
30
16.400019
40
0.000000
41
0.000000
0
VERTEX
8
Soundings
10
509783.675000
20
5459691.575000
30
16.400019
40
0.000000
41
0.000000
0
SEQEND
0
TEXT
8
Soundings
10
509808.625000
20
5459691.625000
30
15.800019
40
0.100000
1
15.80
50
0.000000
0
POLYLINE
8
Soundings
40
10.000000
41
10.000000
70
0
66
1
0
VERTEX
8
Soundings
10
509808.575000
20
5459691.575000
30
15.800019
40
0.000000
41
0.000000
0
VERTEX
8
Soundings
10
509808.625000
20
5459691.625000
30
15.800019
40
0.000000
41
0.000000
0
VERTEX
8
Soundings
10
509808.675000
20
5459691.575000
30
15.800019
40
0.000000
41
0.000000
0
SEQEND
0
TEXT
8
Soundings
10
509833.625000
20
5459691.625000
30
14.850019
40
0.100000
1
14.85
50
0.000000
0
POLYLINE
8
Soundings
40
10.000000
41
10.000000
70
0
66
1
0
VERTEX
8
Soundings
10
509833.575000
20
5459691.575000
30
14.850019
40
0.000000
41
0.000000
0
VERTEX
8
Soundings
10
509833.625000
20
5459691.625000
30
14.850019
40
0.000000
41
0.000000
0
VERTEX
8
Soundings
10
509833.675000
20
5459691.575000
30
14.850019
40
0.000000
41
0.000000
0
SEQEND
0
TEXT
8
Soundings
10
509858.625000
20
5459691.625000
30
15.050019
40
0.100000
1
15.05
50
0.000000
0
POLYLINE
8
Soundings
40
10.000000
41
10.000000
70
0
66
1
0
VERTEX
8
Soundings
10
509858.575000
20
5459691.575000
30
15.050019
40
0.000000
41
0.000000
0
VERTEX
8
Soundings
10
509858.625000
20
5459691.625000
30
15.050019
40
0.000000
41
0.000000
0
VERTEX
8
Soundings
10
509858.675000
20
5459691.575000
30
15.050019
40
0.000000
41
0.000000
0
SEQEND
0
TEXT
8
Soundings
10
509883.625000
20
5459691.625000
30
14.500019
40
0.100000
1
14.50
50
0.000000
0
POLYLINE
8
Soundings
40
10.000000
41
10.000000
70
0
66
1
0
VERTEX
8
Soundings
10
509883.575000
20
5459691.575000
30
14.500019
40
0.000000
41
0.000000
0
VERTEX
8
Soundings
10
509883.625000
20
5459691.625000
30
14.500019
40
0.000000
41
0.000000
0
VERTEX
8
Soundings
10
509883.675000
20
5459691.575000
30
14.500019
40
0.000000
41
0.000000
0
SEQEND
0
TEXT
8
Soundings
10
509908.625000
20
5459691.625000
30
14.300019
40
0.100000
1
14.30
50
0.000000
0
POLYLINE
8
Soundings
40
10.000000
41
10.000000
70
0
66
1
0
VERTEX
8
Soundings
10
509908.575000
20
5459691.575000
30
14.300019
40
0.000000
41
0.000000
0
VERTEX
8
Soundings
10
509908.625000
20
5459691.625000
30
14.300019
40
0.000000
41
0.000000
0
VERTEX
8
Soundings
10
509908.675000
20
5459691.575000
30
14.300019
40
0.000000
41
0.000000
0
SEQEND
0
TEXT
8
Soundings
10
509933.625000
20
5459691.625000
30
13.100019
40
0.100000
1
13.10
50
0.000000
0
POLYLINE
8
Soundings
40
10.000000
41
10.000000
70
0
66
1
0
VERTEX
8
Soundings
10
509933.575000
20
5459691.575000
30
13.100019
40
0.000000
41
0.000000
0
VERTEX
8
Soundings
10
509933.625000
20
5459691.625000
30
13.100019
40
0.000000
41
0.000000
0
VERTEX
8
Soundings
10
509933.675000
20
5459691.575000
30
13.100019
40
0.000000
41
0.000000
0
SEQEND
0
TEXT
8
Soundings
10
509958.625000
20
5459691.625000
30
11.650020
40
0.100000
1
11.65
50
0.000000
0
POLYLINE
8
Soundings
40
10.000000
41
10.000000
70
0
66
1
0
VERTEX
8
Soundings
10
509958.575000
20
5459691.575000
30
11.650020
40
0.000000
41
0.000000
0
VERTEX
8
Soundings
10
509958.625000
20
5459691.625000
30
11.650020
40
0.000000
41
0.000000
0
VERTEX
8
Soundings
10
509958.675000
20
5459691.575000
30
11.650020
40
0.000000
41
0.000000
0
SEQEND
0
TEXT
8
Soundings
10
509758.625000
20
5459666.625000
30
15.900020
40
0.100000
1
15.90
50
0.000000
0
POLYLINE
8
Soundings
40
10.000000
41
10.000000
70
0
66
1
0
VERTEX
8
Soundings
10
509758.575000
20
5459666.575000
30
15.900020
40
0.000000
41
0.000000
0
VERTEX
8
Soundings
10
509758.625000
20
5459666.625000
30
15.900020
40
0.000000
41
0.000000
0
VERTEX
8
Soundings
10
509758.675000
20
5459666.575000
30
15.900020
40
0.000000
41
0.000000
0
SEQEND
0
TEXT
8
Soundings
10
509783.625000
20
5459666.625000
30
15.450019
40
0.100000
1
15.45
50
0.000000
0
POLYLINE
8
Soundings
40
10.000000
41
10.000000
70
0
66
1
0
VERTEX
8
Soundings
10
509783.575000
20
5459666.575000
30
15.450019
40
0.000000
41
0.000000
0
VERTEX
8
Soundings
10
509783.625000
20
5459666.625000
30
15.450019
40
0.000000
41
0.000000
0
VERTEX
8
Soundings
10
509783.675000
20
5459666.575000
30
15.450019
40
0.000000
41
0.000000
0
SEQEND
0
TEXT
8
Soundings
10
509808.625000
20
5459666.625000
30
14.700019
40
0.100000
1
14.70
50
0.000000
0
POLYLINE
8
Soundings
40
10.000000
41
10.000000
70
0
66
1
0
VERTEX
8
Soundings
10
509808.575000
20
5459666.575000
30
14.700019
40
0.000000
41
0.000000
0
VERTEX
8
Soundings
10
509808.625000
20
5459666.625000
30
14.700019
40
0.000000
41
0.000000
0
VERTEX
8
Soundings
10
509808.675000
20
5459666.575000
30
14.700019
40
0.000000
41
0.000000
0
SEQEND
0
TEXT
8
Soundings
10
509833.625000
20
5459666.625000
30
14.900020
40
0.100000
1
14.90
50
0.000000
0
POLYLINE
8
Soundings
40
10.000000
41
10.000000
70
0
66
1
0
VERTEX
8
Soundings
10
509833.575000
20
5459666.575000
30
14.900020
40
0.000000
41
0.000000
0
VERTEX
8
Soundings
10
509833.625000
20
5459666.625000
30
14.900020
40
0.000000
41
0.000000
0
VERTEX
8
Soundings
10
509833.675000
20
5459666.575000
30
14.900020
40
0.000000
41
0.000000
0
SEQEND
0
TEXT
8
Soundings
10
509858.625000
20
5459666.625000
30
14.950019
40
0.100000
1
14.95
50
0.000000
0
POLYLINE
8
Soundings
40
10.000000
41
10.000000
70
0
66
1
0
VERTEX
8
Soundings
10
509858.575000
20
5459666.575000
30
14.950019
40
0.000000
41
0.000000
0
VERTEX
8
Soundings
10
509858.625000
20
5459666.625000
30
14.950019
40
0.000000
41
0.000000
0
VERTEX
8
Soundings
10
509858.675000
20
5459666.575000
30
14.950019
40
0.000000
41
0.000000
0
SEQEND
0
TEXT
8
Soundings
10
509883.625000
20
5459666.625000
30
14.800019
40
0.100000
1
14.80
50
0.000000
0
POLYLINE
8
Soundings
40
10.000000
41
10.000000
70
0
66
1
0
VERTEX
8
Soundings
10
509883.575000
20
5459666.575000
30
14.800019
40
0.000000
41
0.000000
0
VERTEX
8
Soundings
10
509883.625000
20
5459666.625000
30
14.800019
40
0.000000
41
0.000000
0
VERTEX
8
Soundings
10
509883.675000
20
5459666.575000
30
14.800019
40
0.000000
41
0.000000
0
SEQEND
0
TEXT
8
Soundings
10
509908.625000
20
5459666.625000
30
14.350019
40
0.100000
1
14.35
50
0.000000
0
POLYLINE
8
Soundings
40
10.000000
41
10.000000
70
0
66
1
0
VERTEX
8
Soundings
10
509908.575000
20
5459666.575000
30
14.350019
40
0.000000
41
0.000000
0
VERTEX
8
Soundings
10
509908.625000
20
5459666.625000
30
14.350019
40
0.000000
41
0.000000
0
VERTEX
8
Soundings
10
509908.675000
20
5459666.575000
30
14.350019
40
0.000000
41
0.000000
0
SEQEND
0
TEXT
8
Soundings
10
509933.625000
20
5459666.625000
30
13.400020
40
0.100000
1
13.40
50
0.000000
0
POLYLINE
8
Soundings
40
10.000000
41
10.000000
70
0
66
1
0
VERTEX
8
Soundings
10
509933.575000
20
5459666.575000
30
13.400020
40
0.000000
41
0.000000
0
VERTEX
8
Soundings
10
509933.625000
20
5459666.625000
30
13.400020
40
0.000000
41
0.000000
0
VERTEX
8
Soundings
10
509933.675000
20
5459666.575000
30
13.400020
40
0.000000
41
0.000000
0
SEQEND
0
TEXT
8
Soundings
10
509958.625000
20
5459666.625000
30
11.650020
40
0.100000
1
11.65
50
0.000000
0
POLYLINE
8
Soundings
40
10.000000
41
10.000000
70
0
66
1
0
VERTEX
8
Soundings
10
509958.575000
20
5459666.575000
30
11.650020
40
0.000000
41
0.000000
0
VERTEX
8
Soundings
10
509958.625000
20
5459666.625000
30
11.650020
40
0.000000
41
0.000000
0
VERTEX
8
Soundings
10
509958.675000
20
5459666.575000
30
11.650020
40
0.000000
41
0.000000
0
SEQEND
0
TEXT
8
Soundings
10
509983.625000
20
5459666.625000
30
11.750019
40
0.100000
1
11.75
50
0.000000
0
POLYLINE
8
Soundings
40
10.000000
41
10.000000
70
0
66
1
0
VERTEX
8
Soundings
10
509983.575000
20
5459666.575000
30
11.750019
40
0.000000
41
0.000000
0
VERTEX
8
Soundings
10
509983.625000
20
5459666.625000
30
11.750019
40
0.000000
41
0.000000
0
VERTEX
8
Soundings
10
509983.675000
20
5459666.575000
30
11.750019
40
0.000000
41
0.000000
0
SEQEND
0
TEXT
8
Soundings
10
509783.625000
20
5459641.625000
30
15.600019
40
0.100000
1
15.60
50
0.000000
0
POLYLINE
8
Soundings
40
10.000000
41
10.000000
70
0
66
1
0
VERTEX
8
Soundings
10
509783.575000
20
5459641.575000
30
15.600019
40
0.000000
41
0.000000
0
VERTEX
8
Soundings
10
509783.625000
20
5459641.625000
30
15.600019
40
0.000000
41
0.000000
0
VERTEX
8
Soundings
10
509783.675000
20
5459641.575000
30
15.600019
40
0.000000
41
0.000000
0
SEQEND
0
TEXT
8
Soundings
10
509808.625000
20
5459641.625000
30
15.100019
40
0.100000
1
15.10
50
0.000000
0
POLYLINE
8
Soundings
40
10.000000
41
10.000000
70
0
66
1
0
VERTEX
8
Soundings
10
509808.575000
20
5459641.575000
30
15.100019
40
0.000000
41
0.000000
0
VERTEX
8
Soundings
10
509808.625000
20
5459641.625000
30
15.100019
40
0.000000
41
0.000000
0
VERTEX
8
Soundings
10
509808.675000
20
5459641.575000
30
15.100019
40
0.000000
41
0.000000
0
SEQEND
0
TEXT
8
Soundings
10
509833.625000
20
5459641.625000
30
15.300019
40
0.100000
1
15.30
50
0.000000
0
POLYLINE
8
Soundings
40
10.000000
41
10.000000
70
0
66
1
0
VERTEX
8
Soundings
10
509833.575000
20
5459641.575000
30
15.300019
40
0.000000
41
0.000000
0
VERTEX
8
Soundings
10
509833.625000
20
5459641.625000
30
15.300019
40
0.000000
41
0.000000
0
VERTEX
8
Soundings
10
509833.675000
20
5459641.575000
30
15.300019
40
0.000000
41
0.000000
0
SEQEND
0
TEXT
8
Soundings
10
509858.625000
20
5459641.625000
30
15.050019
40
0.100000
1
15.05
50
0.000000
0
POLYLINE
8
Soundings
40
10.000000
41
10.000000
70
0
66
1
0
VERTEX
8
Soundings
10
509858.575000
20
5459641.575000
30
15.050019
40
0.000000
41
0.000000
0
VERTEX
8
Soundings
10
509858.625000
20
5459641.625000
30
15.050019
40
0.000000
41
0.000000
0
VERTEX
8
Soundings
10
509858.675000
20
5459641.575000
30
15.050019
40
0.000000
41
0.000000
0
SEQEND
0
TEXT
8
Soundings
10
509883.625000
20
5459641.625000
30
15.100019
40
0.100000
1
15.10
50
0.000000
0
POLYLINE
8
Soundings
40
10.000000
41
10.000000
70
0
66
1
0
VERTEX
8
Soundings
10
509883.575000
20
5459641.575000
30
15.100019
40
0.000000
41
0.000000
0
VERTEX
8
Soundings
10
509883.625000
20
5459641.625000
30
15.100019
40
0.000000
41
0.000000
0
VERTEX
8
Soundings
10
509883.675000
20
5459641.575000
30
15.100019
40
0.000000
41
0.000000
0
SEQEND
0
TEXT
8
Soundings
10
509908.625000
20
5459641.625000
30
14.350019
40
0.100000
1
14.35
50
0.000000
0
POLYLINE
8
Soundings
40
10.000000
41
10.000000
70
0
66
1
0
VERTEX
8
Soundings
10
509908.575000
20
5459641.575000
30
14.350019
40
0.000000
41
0.000000
0
VERTEX
8
Soundings
10
509908.625000
20
5459641.625000
30
14.350019
40
0.000000
41
0.000000
0
VERTEX
8
Soundings
10
509908.675000
20
5459641.575000
30
14.350019
40
0.000000
41
0.000000
0
SEQEND
0
TEXT
8
Soundings
10
509933.625000
20
5459641.625000
30
12.700019
40
0.100000
1
12.70
50
0.000000
0
POLYLINE
8
Soundings
40
10.000000
41
10.000000
70
0
66
1
0
VERTEX
8
Soundings
10
509933.575000
20
5459641.575000
30
12.700019
40
0.000000
41
0.000000
0
VERTEX
8
Soundings
10
509933.625000
20
5459641.625000
30
12.700019
40
0.000000
41
0.000000
0
VERTEX
8
Soundings
10
509933.675000
20
5459641.575000
30
12.700019
40
0.000000
41
0.000000
0
SEQEND
0
TEXT
8
Soundings
10
509958.625000
20
5459641.625000
30
12.150020
40
0.100000
1
12.15
50
0.000000
0
POLYLINE
8
Soundings
40
10.000000
41
10.000000
70
0
66
1
0
VERTEX
8
Soundings
10
509958.575000
20
5459641.575000
30
12.150020
40
0.000000
41
0.000000
0
VERTEX
8
Soundings
10
509958.625000
20
5459641.625000
30
12.150020
40
0.000000
41
0.000000
0
VERTEX
8
Soundings
10
509958.675000
20
5459641.575000
30
12.150020
40
0.000000
41
0.000000
0
SEQEND
0
TEXT
8
Soundings
10
509983.625000
20
5459641.625000
30
11.550019
40
0.100000
1
11.55
50
0.000000
0
POLYLINE
8
Soundings
40
10.000000
41
10.000000
70
0
66
1
0
VERTEX
8
Soundings
10
509983.575000
20
5459641.575000
30
11.550019
40
0.000000
41
0.000000
0
VERTEX
8
Soundings
10
509983.625000
20
5459641.625000
30
11.550019
40
0.000000
41
0.000000
0
VERTEX
8
Soundings
10
509983.675000
20
5459641.575000
30
11.550019
40
0.000000
41
0.000000
0
SEQEND
0
TEXT
8
Soundings
10
509808.625000
20
5459616.625000
30
15.050019
40
0.100000
1
15.05
50
0.000000
0
POLYLINE
8
Soundings
40
10.000000
41
10.000000
70
0
66
1
0
VERTEX
8
Soundings
10
509808.575000
20
5459616.575000
30
15.050019
40
0.000000
41
0.000000
0
VERTEX
8
Soundings
10
509808.625000
20
5459616.625000
30
15.050019
40
0.000000
41
0.000000
0
VERTEX
8
Soundings
10
509808.675000
20
5459616.575000
30
15.050019
40
0.000000
41
0.000000
0
SEQEND
0
TEXT
8
Soundings
10
509833.625000
20
5459616.625000
30
15.550019
40
0.100000
1
15.55
50
0.000000
0
POLYLINE
8
Soundings
40
10.000000
41
10.000000
70
0
66
1
0
VERTEX
8
Soundings
10
509833.575000
20
5459616.575000
30
15.550019
40
0.000000
41
0.000000
0
VERTEX
8
Soundings
10
509833.625000
20
5459616.625000
30
15.550019
40
0.000000
41
0.000000
0
VERTEX
8
Soundings
10
509833.675000
20
5459616.575000
30
15.550019
40
0.000000
41
0.000000
0
SEQEND
0
TEXT
8
Soundings
10
509858.625000
20
5459616.625000
30
15.100019
40
0.100000
1
15.10
50
0.000000
0
POLYLINE
8
Soundings
40
10.000000
41
10.000000
70
0
66
1
0
VERTEX
8
Soundings
10
509858.575000
20
5459616.575000
30
15.100019
40
0.000000
41
0.000000
0
VERTEX
8
Soundings
10
509858.625000
20
5459616.625000
30
15.100019
40
0.000000
41
0.000000
0
VERTEX
8
Soundings
10
509858.675000
20
5459616.575000
30
15.100019
40
0.000000
41
0.000000
0
SEQEND
0
TEXT
8
Soundings
10
509883.625000
20
5459616.625000
30
14.750019
40
0.100000
1
14.75
50
0.000000
0
POLYLINE
8
Soundings
40
10.000000
41
10.000000
70
0
66
1
0
VERTEX
8
Soundings
10
509883.575000
20
5459616.575000
30
14.750019
40
0.000000
41
0.000000
0
VERTEX
8
Soundings
10
509883.625000
20
5459616.625000
30
14.750019
40
0.000000
41
0.000000
0
VERTEX
8
Soundings
10
509883.675000
20
5459616.575000
30
14.750019
40
0.000000
41
0.000000
0
SEQEND
0
TEXT
8
Soundings
10
509908.625000
20
5459616.625000
30
14.450019
40
0.100000
1
14.45
50
0.000000
0
POLYLINE
8
Soundings
40
10.000000
41
10.000000
70
0
66
1
0
VERTEX
8
Soundings
10
509908.575000
20
5459616.575000
30
14.450019
40
0.000000
41
0.000000
0
VERTEX
8
Soundings
10
509908.625000
20
5459616.625000
30
14.450019
40
0.000000
41
0.000000
0
VERTEX
8
Soundings
10
509908.675000
20
5459616.575000
30
14.450019
40
0.000000
41
0.000000
0
SEQEND
0
TEXT
8
Soundings
10
509933.625000
20
5459616.625000
30
12.700019
40
0.100000
1
12.70
50
0.000000
0
POLYLINE
8
Soundings
40
10.000000
41
10.000000
70
0
66
1
0
VERTEX
8
Soundings
10
509933.575000
20
5459616.575000
30
12.700019
40
0.000000
41
0.000000
0
VERTEX
8
Soundings
10
509933.625000
20
5459616.625000
30
12.700019
40
0.000000
41
0.000000
0
VERTEX
8
Soundings
10
509933.675000
20
5459616.575000
30
12.700019
40
0.000000
41
0.000000
0
SEQEND
0
TEXT
8
Soundings
10
509958.625000
20
5459616.625000
30
12.300019
40
0.100000
1
12.30
50
0.000000
0
POLYLINE
8
Soundings
40
10.000000
41
10.000000
70
0
66
1
0
VERTEX
8
Soundings
10
509958.575000
20
5459616.575000
30
12.300019
40
0.000000
41
0.000000
0
VERTEX
8
Soundings
10
509958.625000
20
5459616.625000
30
12.300019
40
0.000000
41
0.000000
0
VERTEX
8
Soundings
10
509958.675000
20
5459616.575000
30
12.300019
40
0.000000
41
0.000000
0
SEQEND
0
TEXT
8
Soundings
10
509983.625000
20
5459616.625000
30
11.750019
40
0.100000
1
11.75
50
0.000000
0
POLYLINE
8
Soundings
40
10.000000
41
10.000000
70
0
66
1
0
VERTEX
8
Soundings
10
509983.575000
20
5459616.575000
30
11.750019
40
0.000000
41
0.000000
0
VERTEX
8
Soundings
10
509983.625000
20
5459616.625000
30
11.750019
40
0.000000
41
0.000000
0
VERTEX
8
Soundings
10
509983.675000
20
5459616.575000
30
11.750019
40
0.000000
41
0.000000
0
SEQEND
0
TEXT
8
Soundings
10
510008.625000
20
5459616.625000
30
11.450019
40
0.100000
1
11.45
50
0.000000
0
POLYLINE
8
Soundings
40
10.000000
41
10.000000
70
0
66
1
0
VERTEX
8
Soundings
10
510008.575000
20
5459616.575000
30
11.450019
40
0.000000
41
0.000000
0
VERTEX
8
Soundings
10
510008.625000
20
5459616.625000
30
11.450019
40
0.000000
41
0.000000
0
VERTEX
8
Soundings
10
510008.675000
20
5459616.575000
30
11.450019
40
0.000000
41
0.000000
0
SEQEND
0
TEXT
8
Soundings
10
509833.625000
20
5459591.625000
30
15.150020
40
0.100000
1
15.15
50
0.000000
0
POLYLINE
8
Soundings
40
10.000000
41
10.000000
70
0
66
1
0
VERTEX
8
Soundings
10
509833.575000
20
5459591.575000
30
15.150020
40
0.000000
41
0.000000
0
VERTEX
8
Soundings
10
509833.625000
20
5459591.625000
30
15.150020
40
0.000000
41
0.000000
0
VERTEX
8
Soundings
10
509833.675000
20
5459591.575000
30
15.150020
40
0.000000
41
0.000000
0
SEQEND
0
TEXT
8
Soundings
10
509858.625000
20
5459591.625000
30
14.600019
40
0.100000
1
14.60
50
0.000000
0
POLYLINE
8
Soundings
40
10.000000
41
10.000000
70
0
66
1
0
VERTEX
8
Soundings
10
509858.575000
20
5459591.575000
30
14.600019
40
0.000000
41
0.000000
0
VERTEX
8
Soundings
10
509858.625000
20
5459591.625000
30
14.600019
40
0.000000
41
0.000000
0
VERTEX
8
Soundings
10
509858.675000
20
5459591.575000
30
14.600019
40
0.000000
41
0.000000
0
SEQEND
0
TEXT
8
Soundings
10
509883.625000
20
5459591.625000
30
14.350019
40
0.100000
1
14.35
50
0.000000
0
POLYLINE
8
Soundings
40
10.000000
41
10.000000
70
0
66
1
0
VERTEX
8
Soundings
10
509883.575000
20
5459591.575000
30
14.350019
40
0.000000
41
0.000000
0
VERTEX
8
Soundings
10
509883.625000
20
5459591.625000
30
14.350019
40
0.000000
41
0.000000
0
VERTEX
8
Soundings
10
509883.675000
20
5459591.575000
30
14.350019
40
0.000000
41
0.000000
0
SEQEND
0
TEXT
8
Soundings
10
509908.625000
20
5459591.625000
30
13.950019
40
0.100000
1
13.95
50
0.000000
0
POLYLINE
8
Soundings
40
10.000000
41
10.000000
70
0
66
1
0
VERTEX
8
Soundings
10
509908.575000
20
5459591.575000
30
13.950019
40
0.000000
41
0.000000
0
VERTEX
8
Soundings
10
509908.625000
20
5459591.625000
30
13.950019
40
0.000000
41
0.000000
0
VERTEX
8
Soundings
10
509908.675000
20
5459591.575000
30
13.950019
40
0.000000
41
0.000000
0
SEQEND
0
TEXT
8
Soundings
10
509933.625000
20
5459591.625000
30
12.750019
40
0.100000
1
12.75
50
0.000000
0
POLYLINE
8
Soundings
40
10.000000
41
10.000000
70
0
66
1
0
VERTEX
8
Soundings
10
509933.575000
20
5459591.575000
30
12.750019
40
0.000000
41
0.000000
0
VERTEX
8
Soundings
10
509933.625000
20
5459591.625000
30
12.750019
40
0.000000
41
0.000000
0
VERTEX
8
Soundings
10
509933.675000
20
5459591.575000
30
12.750019
40
0.000000
41
0.000000
0
SEQEND
0
TEXT
8
Soundings
10
509958.625000
20
5459591.625000
30
12.050019
40
0.100000
1
12.05
50
0.000000
0
POLYLINE
8
Soundings
40
10.000000
41
10.000000
70
0
66
1
0
VERTEX
8
Soundings
10
509958.575000
20
5459591.575000
30
12.050019
40
0.000000
41
0.000000
0
VERTEX
8
Soundings
10
509958.625000
20
5459591.625000
30
12.050019
40
0.000000
41
0.000000
0
VERTEX
8
Soundings
10
509958.675000
20
5459591.575000
30
12.050019
40
0.000000
41
0.000000
0
SEQEND
0
TEXT
8
Soundings
10
509983.625000
20
5459591.625000
30
11.650020
40
0.100000
1
11.65
50
0.000000
0
POLYLINE
8
Soundings
40
10.000000
41
10.000000
70
0
66
1
0
VERTEX
8
Soundings
10
509983.575000
20
5459591.575000
30
11.650020
40
0.000000
41
0.000000
0
VERTEX
8
Soundings
10
509983.625000
20
5459591.625000
30
11.650020
40
0.000000
41
0.000000
0
VERTEX
8
Soundings
10
509983.675000
20
5459591.575000
30
11.650020
40
0.000000
41
0.000000
0
SEQEND
0
TEXT
8
Soundings
10
510008.625000
20
5459591.625000
30
10.800019
40
0.100000
1
10.80
50
0.000000
0
POLYLINE
8
Soundings
40
10.000000
41
10.000000
70
0
66
1
0
VERTEX
8
Soundings
10
510008.575000
20
5459591.575000
30
10.800019
40
0.000000
41
0.000000
0
VERTEX
8
Soundings
10
510008.625000
20
5459591.625000
30
10.800019
40
0.000000
41
0.000000
0
VERTEX
8
Soundings
10
510008.675000
20
5459591.575000
30
10.800019
40
0.000000
41
0.000000
0
SEQEND
0
TEXT
8
Soundings
10
510033.625000
20
5459591.625000
30
11.500019
40
0.100000
1
11.50
50
0.000000
0
POLYLINE
8
Soundings
40
10.000000
41
10.000000
70
0
66
1
0
VERTEX
8
Soundings
10
510033.575000
20
5459591.575000
30
11.500019
40
0.000000
41
0.000000
0
VERTEX
8
Soundings
10
510033.625000
20
5459591.625000
30
11.500019
40
0.000000
41
0.000000
0
VERTEX
8
Soundings
10
510033.675000
20
5459591.575000
30
11.500019
40
0.000000
41
0.000000
0
SEQEND
0
TEXT
8
Soundings
10
509858.625000
20
5459566.625000
30
14.950019
40
0.100000
1
14.95
50
0.000000
0
POLYLINE
8
Soundings
40
10.000000
41
10.000000
70
0
66
1
0
VERTEX
8
Soundings
10
509858.575000
20
5459566.575000
30
14.950019
40
0.000000
41
0.000000
0
VERTEX
8
Soundings
10
509858.625000
20
5459566.625000
30
14.950019
40
0.000000
41
0.000000
0
VERTEX
8
Soundings
10
509858.675000
20
5459566.575000
30
14.950019
40
0.000000
41
0.000000
0
SEQEND
0
TEXT
8
Soundings
10
509883.625000
20
5459566.625000
30
13.800019
40
0.100000
1
13.80
50
0.000000
0
POLYLINE
8
Soundings
40
10.000000
41
10.000000
70
0
66
1
0
VERTEX
8
Soundings
10
509883.575000
20
5459566.575000
30
13.800019
40
0.000000
41
0.000000
0
VERTEX
8
Soundings
10
509883.625000
20
5459566.625000
30
13.800019
40
0.000000
41
0.000000
0
VERTEX
8
Soundings
10
509883.675000
20
5459566.575000
30
13.800019
40
0.000000
41
0.000000
0
SEQEND
0
TEXT
8
Soundings
10
509908.625000
20
5459566.625000
30
13.950019
40
0.100000
1
13.95
50
0.000000
0
POLYLINE
8
Soundings
40
10.000000
41
10.000000
70
0
66
1
0
VERTEX
8
Soundings
10
509908.575000
20
5459566.575000
30
13.950019
40
0.000000
41
0.000000
0
VERTEX
8
Soundings
10
509908.625000
20
5459566.625000
30
13.950019
40
0.000000
41
0.000000
0
VERTEX
8
Soundings
10
509908.675000
20
5459566.575000
30
13.950019
40
0.000000
41
0.000000
0
SEQEND
0
TEXT
8
Soundings
10
509933.625000
20
5459566.625000
30
13.900020
40
0.100000
1
13.90
50
0.000000
0
POLYLINE
8
Soundings
40
10.000000
41
10.000000
70
0
66
1
0
VERTEX
8
Soundings
10
509933.575000
20
5459566.575000
30
13.900020
40
0.000000
41
0.000000
0
VERTEX
8
Soundings
10
509933.625000
20
5459566.625000
30
13.900020
40
0.000000
41
0.000000
0
VERTEX
8
Soundings
10
509933.675000
20
5459566.575000
30
13.900020
40
0.000000
41
0.000000
0
SEQEND
0
TEXT
8
Soundings
10
509958.625000
20
5459566.625000
30
11.900020
40
0.100000
1
11.90
50
0.000000
0
POLYLINE
8
Soundings
40
10.000000
41
10.000000
70
0
66
1
0
VERTEX
8
Soundings
10
509958.575000
20
5459566.575000
30
11.900020
40
0.000000
41
0.000000
0
VERTEX
8
Soundings
10
509958.625000
20
5459566.625000
30
11.900020
40
0.000000
41
0.000000
0
VERTEX
8
Soundings
10
509958.675000
20
5459566.575000
30
11.900020
40
0.000000
41
0.000000
0
SEQEND
0
TEXT
8
Soundings
10
509983.625000
20
5459566.625000
30
11.300019
40
0.100000
1
11.30
50
0.000000
0
POLYLINE
8
Soundings
40
10.000000
41
10.000000
70
0
66
1
0
VERTEX
8
Soundings
10
509983.575000
20
5459566.575000
30
11.300019
40
0.000000
41
0.000000
0
VERTEX
8
Soundings
10
509983.625000
20
5459566.625000
30
11.300019
40
0.000000
41
0.000000
0
VERTEX
8
Soundings
10
509983.675000
20
5459566.575000
30
11.300019
40
0.000000
41
0.000000
0
SEQEND
0
TEXT
8
Soundings
10
510008.625000
20
5459566.625000
30
10.800019
40
0.100000
1
10.80
50
0.000000
0
POLYLINE
8
Soundings
40
10.000000
41
10.000000
70
0
66
1
0
VERTEX
8
Soundings
10
510008.575000
20
5459566.575000
30
10.800019
40
0.000000
41
0.000000
0
VERTEX
8
Soundings
10
510008.625000
20
5459566.625000
30
10.800019
40
0.000000
41
0.000000
0
VERTEX
8
Soundings
10
510008.675000
20
5459566.575000
30
10.800019
40
0.000000
41
0.000000
0
SEQEND
0
TEXT
8
Soundings
10
510033.625000
20
5459566.625000
30
11.200019
40
0.100000
1
11.20
50
0.000000
0
POLYLINE
8
Soundings
40
10.000000
41
10.000000
70
0
66
1
0
VERTEX
8
Soundings
10
510033.575000
20
5459566.575000
30
11.200019
40
0.000000
41
0.000000
0
VERTEX
8
Soundings
10
510033.625000
20
5459566.625000
30
11.200019
40
0.000000
41
0.000000
0
VERTEX
8
Soundings
10
510033.675000
20
5459566.575000
30
11.200019
40
0.000000
41
0.000000
0
SEQEND
0
TEXT
8
Soundings
10
509883.625000
20
5459541.625000
30
13.550019
40
0.100000
1
13.55
50
0.000000
0
POLYLINE
8
Soundings
40
10.000000
41
10.000000
70
0
66
1
0
VERTEX
8
Soundings
10
509883.575000
20
5459541.575000
30
13.550019
40
0.000000
41
0.000000
0
VERTEX
8
Soundings
10
509883.625000
20
5459541.625000
30
13.550019
40
0.000000
41
0.000000
0
VERTEX
8
Soundings
10
509883.675000
20
5459541.575000
30
13.550019
40
0.000000
41
0.000000
0
SEQEND
0
TEXT
8
Soundings
10
509908.625000
20
5459541.625000
30
13.650020
40
0.100000
1
13.65
50
0.000000
0
POLYLINE
8
Soundings
40
10.000000
41
10.000000
70
0
66
1
0
VERTEX
8
Soundings
10
509908.575000
20
5459541.575000
30
13.650020
40
0.000000
41
0.000000
0
VERTEX
8
Soundings
10
509908.625000
20
5459541.625000
30
13.650020
40
0.000000
41
0.000000
0
VERTEX
8
Soundings
10
509908.675000
20
5459541.575000
30
13.650020
40
0.000000
41
0.000000
0
SEQEND
0
TEXT
8
Soundings
10
509933.625000
20
5459541.625000
30
12.100019
40
0.100000
1
12.10
50
0.000000
0
POLYLINE
8
Soundings
40
10.000000
41
10.000000
70
0
66
1
0
VERTEX
8
Soundings
10
509933.575000
20
5459541.575000
30
12.100019
40
0.000000
41
0.000000
0
VERTEX
8
Soundings
10
509933.625000
20
5459541.625000
30
12.100019
40
0.000000
41
0.000000
0
VERTEX
8
Soundings
10
509933.675000
20
5459541.575000
30
12.100019
40
0.000000
41
0.000000
0
SEQEND
0
TEXT
8
Soundings
10
509958.625000
20
5459541.625000
30
12.050019
40
0.100000
1
12.05
50
0.000000
0
POLYLINE
8
Soundings
40
10.000000
41
10.000000
70
0
66
1
0
VERTEX
8
Soundings
10
509958.575000
20
5459541.575000
30
12.050019
40
0.000000
41
0.000000
0
VERTEX
8
Soundings
10
509958.625000
20
5459541.625000
30
12.050019
40
0.000000
41
0.000000
0
VERTEX
8
Soundings
10
509958.675000
20
5459541.575000
30
12.050019
40
0.000000
41
0.000000
0
SEQEND
0
TEXT
8
Soundings
10
509983.625000
20
5459541.625000
30
11.300019
40
0.100000
1
11.30
50
0.000000
0
POLYLINE
8
Soundings
40
10.000000
41
10.000000
70
0
66
1
0
VERTEX
8
Soundings
10
509983.575000
20
5459541.575000
30
11.300019
40
0.000000
41
0.000000
0
VERTEX
8
Soundings
10
509983.625000
20
5459541.625000
30
11.300019
40
0.000000
41
0.000000
0
VERTEX
8
Soundings
10
509983.675000
20
5459541.575000
30
11.300019
40
0.000000
41
0.000000
0
SEQEND
0
TEXT
8
Soundings
10
510008.625000
20
5459541.625000
30
11.250019
40
0.100000
1
11.25
50
0.000000
0
POLYLINE
8
Soundings
40
10.000000
41
10.000000
70
0
66
1
0
VERTEX
8
Soundings
10
510008.575000
20
5459541.575000
30
11.250019
40
0.000000
41
0.000000
0
VERTEX
8
Soundings
10
510008.625000
20
5459541.625000
30
11.250019
40
0.000000
41
0.000000
0
VERTEX
8
Soundings
10
510008.675000
20
5459541.575000
30
11.250019
40
0.000000
41
0.000000
0
SEQEND
0
TEXT
8
Soundings
10
510033.625000
20
5459541.625000
30
11.250019
40
0.100000
1
11.25
50
0.000000
0
POLYLINE
8
Soundings
40
10.000000
41
10.000000
70
0
66
1
0
VERTEX
8
Soundings
10
510033.575000
20
5459541.575000
30
11.250019
40
0.000000
41
0.000000
0
VERTEX
8
Soundings
10
510033.625000
20
5459541.625000
30
11.250019
40
0.000000
41
0.000000
0
VERTEX
8
Soundings
10
510033.675000
20
5459541.575000
30
11.250019
40
0.000000
41
0.000000
0
SEQEND
0
TEXT
8
Soundings
10
510058.625000
20
5459541.625000
30
10.800019
40
0.100000
1
10.80
50
0.000000
0
POLYLINE
8
Soundings
40
10.000000
41
10.000000
70
0
66
1
0
VERTEX
8
Soundings
10
510058.575000
20
5459541.575000
30
10.800019
40
0.000000
41
0.000000
0
VERTEX
8
Soundings
10
510058.625000
20
5459541.625000
30
10.800019
40
0.000000
41
0.000000
0
VERTEX
8
Soundings
10
510058.675000
20
5459541.575000
30
10.800019
40
0.000000
41
0.000000
0
SEQEND
0
TEXT
8
Soundings
10
509908.625000
20
5459516.625000
30
12.150020
40
0.100000
1
12.15
50
0.000000
0
POLYLINE
8
Soundings
40
10.000000
41
10.000000
70
0
66
1
0
VERTEX
8
Soundings
10
509908.575000
20
5459516.575000
30
12.150020
40
0.000000
41
0.000000
0
VERTEX
8
Soundings
10
509908.625000
20
5459516.625000
30
12.150020
40
0.000000
41
0.000000
0
VERTEX
8
Soundings
10
509908.675000
20
5459516.575000
30
12.150020
40
0.000000
41
0.000000
0
SEQEND
0
TEXT
8
Soundings
10
509933.625000
20
5459516.625000
30
12.250019
40
0.100000
1
12.25
50
0.000000
0
POLYLINE
8
Soundings
40
10.000000
41
10.000000
70
0
66
1
0
VERTEX
8
Soundings
10
509933.575000
20
5459516.575000
30
12.250019
40
0.000000
41
0.000000
0
VERTEX
8
Soundings
10
509933.625000
20
5459516.625000
30
12.250019
40
0.000000
41
0.000000
0
VERTEX
8
Soundings
10
509933.675000
20
5459516.575000
30
12.250019
40
0.000000
41
0.000000
0
SEQEND
0
TEXT
8
Soundings
10
509958.625000
20
5459516.625000
30
11.950019
40
0.100000
1
11.95
50
0.000000
0
POLYLINE
8
Soundings
40
10.000000
41
10.000000
70
0
66
1
0
VERTEX
8
Soundings
10
509958.575000
20
5459516.575000
30
11.950019
40
0.000000
41
0.000000
0
VERTEX
8
Soundings
10
509958.625000
20
5459516.625000
30
11.950019
40
0.000000
41
0.000000
0
VERTEX
8
Soundings
10
509958.675000
20
5459516.575000
30
11.950019
40
0.000000
41
0.000000
0
SEQEND
0
TEXT
8
Soundings
10
509983.625000
20
5459516.625000
30
11.200019
40
0.100000
1
11.20
50
0.000000
0
POLYLINE
8
Soundings
40
10.000000
41
10.000000
70
0
66
1
0
VERTEX
8
Soundings
10
509983.575000
20
5459516.575000
30
11.200019
40
0.000000
41
0.000000
0
VERTEX
8
Soundings
10
509983.625000
20
5459516.625000
30
11.200019
40
0.000000
41
0.000000
0
VERTEX
8
Soundings
10
509983.675000
20
5459516.575000
30
11.200019
40
0.000000
41
0.000000
0
SEQEND
0
TEXT
8
Soundings
10
510008.625000
20
5459516.625000
30
10.900020
40
0.100000
1
10.90
50
0.000000
0
POLYLINE
8
Soundings
40
10.000000
41
10.000000
70
0
66
1
0
VERTEX
8
Soundings
10
510008.575000
20
5459516.575000
30
10.900020
40
0.000000
41
0.000000
0
VERTEX
8
Soundings
10
510008.625000
20
5459516.625000
30
10.900020
40
0.000000
41
0.000000
0
VERTEX
8
Soundings
10
510008.675000
20
5459516.575000
30
10.900020
40
0.000000
41
0.000000
0
SEQEND
0
TEXT
8
Soundings
10
510033.625000
20
5459516.625000
30
11.000019
40
0.100000
1
11.00
50
0.000000
0
POLYLINE
8
Soundings
40
10.000000
41
10.000000
70
0
66
1
0
VERTEX
8
Soundings
10
510033.575000
20
5459516.575000
30
11.000019
40
0.000000
41
0.000000
0
VERTEX
8
Soundings
10
510033.625000
20
5459516.625000
30
11.000019
40
0.000000
41
0.000000
0
VERTEX
8
Soundings
10
510033.675000
20
5459516.575000
30
11.000019
40
0.000000
41
0.000000
0
SEQEND
0
TEXT
8
Soundings
10
510058.625000
20
5459516.625000
30
10.900020
40
0.100000
1
10.90
50
0.000000
0
POLYLINE
8
Soundings
40
10.000000
41
10.000000
70
0
66
1
0
VERTEX
8
Soundings
10
510058.575000
20
5459516.575000
30
10.900020
40
0.000000
41
0.000000
0
VERTEX
8
Soundings
10
510058.625000
20
5459516.625000
30
10.900020
40
0.000000
41
0.000000
0
VERTEX
8
Soundings
10
510058.675000
20
5459516.575000
30
10.900020
40
0.000000
41
0.000000
0
SEQEND
0
TEXT
8
Soundings
10
509933.625000
20
5459491.625000
30
11.400020
40
0.100000
1
11.40
50
0.000000
0
POLYLINE
8
Soundings
40
10.000000
41
10.000000
70
0
66
1
0
VERTEX
8
Soundings
10
509933.575000
20
5459491.575000
30
11.400020
40
0.000000
41
0.000000
0
VERTEX
8
Soundings
10
509933.625000
20
5459491.625000
30
11.400020
40
0.000000
41
0.000000
0
VERTEX
8
Soundings
10
509933.675000
20
5459491.575000
30
11.400020
40
0.000000
41
0.000000
0
SEQEND
0
TEXT
8
Soundings
10
509958.625000
20
5459491.625000
30
11.100019
40
0.100000
1
11.10
50
0.000000
0
POLYLINE
8
Soundings
40
10.000000
41
10.000000
70
0
66
1
0
VERTEX
8
Soundings
10
509958.575000
20
5459491.575000
30
11.100019
40
0.000000
41
0.000000
0
VERTEX
8
Soundings
10
509958.625000
20
5459491.625000
30
11.100019
40
0.000000
41
0.000000
0
VERTEX
8
Soundings
10
509958.675000
20
5459491.575000
30
11.100019
40
0.000000
41
0.000000
0
SEQEND
0
TEXT
8
Soundings
10
509983.625000
20
5459491.625000
30
11.400020
40
0.100000
1
11.40
50
0.000000
0
POLYLINE
8
Soundings
40
10.000000
41
10.000000
70
0
66
1
0
VERTEX
8
Soundings
10
509983.575000
20
5459491.575000
30
11.400020
40
0.000000
41
0.000000
0
VERTEX
8
Soundings
10
509983.625000
20
5459491.625000
30
11.400020
40
0.000000
41
0.000000
0
VERTEX
8
Soundings
10
509983.675000
20
5459491.575000
30
11.400020
40
0.000000
41
0.000000
0
SEQEND
0
TEXT
8
Soundings
10
510008.625000
20
5459491.625000
30
11.100019
40
0.100000
1
11.10
50
0.000000
0
POLYLINE
8
Soundings
40
10.000000
41
10.000000
70
0
66
1
0
VERTEX
8
Soundings
10
510008.575000
20
5459491.575000
30
11.100019
40
0.000000
41
0.000000
0
VERTEX
8
Soundings
10
510008.625000
20
5459491.625000
30
11.100019
40
0.000000
41
0.000000
0
VERTEX
8
Soundings
10
510008.675000
20
5459491.575000
30
11.100019
40
0.000000
41
0.000000
0
SEQEND
0
TEXT
8
Soundings
10
509933.625000
20
5459466.625000
30
10.600019
40
0.100000
1
10.60
50
0.000000
0
POLYLINE
8
Soundings
40
10.000000
41
10.000000
70
0
66
1
0
VERTEX
8
Soundings
10
509933.575000
20
5459466.575000
30
10.600019
40
0.000000
41
0.000000
0
VERTEX
8
Soundings
10
509933.625000
20
5459466.625000
30
10.600019
40
0.000000
41
0.000000
0
VERTEX
8
Soundings
10
509933.675000
20
5459466.575000
30
10.600019
40
0.000000
41
0.000000
0
SEQEND
0
TEXT
8
Soundings
10
509958.625000
20
5459466.625000
30
11.250019
40
0.100000
1
11.25
50
0.000000
0
POLYLINE
8
Soundings
40
10.000000
41
10.000000
70
0
66
1
0
VERTEX
8
Soundings
10
509958.575000
20
5459466.575000
30
11.250019
40
0.000000
41
0.000000
0
VERTEX
8
Soundings
10
509958.625000
20
5459466.625000
30
11.250019
40
0.000000
41
0.000000
0
VERTEX
8
Soundings
10
509958.675000
20
5459466.575000
30
11.250019
40
0.000000
41
0.000000
0
SEQEND
0
TEXT
8
Soundings
10
509983.625000
20
5459466.625000
30
10.850019
40
0.100000
1
10.85
50
0.000000
0
POLYLINE
8
Soundings
40
10.000000
41
10.000000
70
0
66
1
0
VERTEX
8
Soundings
10
509983.575000
20
5459466.575000
30
10.850019
40
0.000000
41
0.000000
0
VERTEX
8
Soundings
10
509983.625000
20
5459466.625000
30
10.850019
40
0.000000
41
0.000000
0
VERTEX
8
Soundings
10
509983.675000
20
5459466.575000
30
10.850019
40
0.000000
41
0.000000
0
SEQEND
0
TEXT
8
Soundings
10
510008.625000
20
5459466.625000
30
11.150020
40
0.100000
1
11.15
50
0.000000
0
POLYLINE
8
Soundings
40
10.000000
41
10.000000
70
0
66
1
0
VERTEX
8
Soundings
10
510008.575000
20
5459466.575000
30
11.150020
40
0.000000
41
0.000000
0
VERTEX
8
Soundings
10
510008.625000
20
5459466.625000
30
11.150020
40
0.000000
41
0.000000
0
VERTEX
8
Soundings
10
510008.675000
20
5459466.575000
30
11.150020
40
0.000000
41
0.000000
0
SEQEND
0
TEXT
8
Soundings
10
509933.625000
20
5459441.625000
30
10.100019
40
0.100000
1
10.10
50
0.000000
0
POLYLINE
8
Soundings
40
10.000000
41
10.000000
70
0
66
1
0
VERTEX
8
Soundings
10
509933.575000
20
5459441.575000
30
10.100019
40
0.000000
41
0.000000
0
VERTEX
8
Soundings
10
509933.625000
20
5459441.625000
30
10.100019
40
0.000000
41
0.000000
0
VERTEX
8
Soundings
10
509933.675000
20
5459441.575000
30
10.100019
40
0.000000
41
0.000000
0
SEQEND
0
TEXT
8
Soundings
10
509958.625000
20
5459441.625000
30
10.450019
40
0.100000
1
10.45
50
0.000000
0
POLYLINE
8
Soundings
40
10.000000
41
10.000000
70
0
66
1
0
VERTEX
8
Soundings
10
509958.575000
20
5459441.575000
30
10.450019
40
0.000000
41
0.000000
0
VERTEX
8
Soundings
10
509958.625000
20
5459441.625000
30
10.450019
40
0.000000
41
0.000000
0
VERTEX
8
Soundings
10
509958.675000
20
5459441.575000
30
10.450019
40
0.000000
41
0.000000
0
SEQEND
0
ENDSEC
0
EOF
